<svg width="16" height="16" viewBox="0 0 1024 1024" version="1.1" xmlns="http://www.w3.org/2000/svg">
  <path d="M626.176 333.824c4.096 0.512 7.68 0.512 11.264 0.512 28.16 0 55.296-11.776 75.776-32.256 23.04-22.528 37.376-53.248 40.448-86.016 3.584-32.768-4.096-66.048-21.504-93.184-18.432-28.16-46.08-45.568-78.336-49.152-31.744-3.584-62.464 8.192-87.04 31.744-23.04 22.528-37.376 53.248-40.448 86.016-3.584 32.768 4.096 66.048 21.504 93.184 18.944 28.16 46.592 45.568 78.336 49.152zM594.944 199.68c2.048-17.92 8.704-33.28 20.48-44.032 8.192-8.192 17.92-12.8 27.648-12.8h3.584c10.752 1.536 20.48 7.68 27.648 18.432 8.704 12.8 12.288 29.696 10.24 47.104-2.048 17.92-8.704 32.768-19.968 44.032-9.728 9.216-20.48 13.312-31.232 12.288-11.264-1.024-20.992-7.68-28.16-18.944-8.192-12.288-12.288-29.184-10.24-46.08zM313.344 302.592c21.504 20.992 48.64 32.256 75.776 32.256 3.584 0 7.168 0 11.264-0.512 31.744-3.584 59.392-20.48 78.336-49.152 17.408-27.136 25.6-59.904 21.504-93.184-4.096-34.304-18.432-64.512-40.448-86.016-24.064-23.552-55.808-35.328-87.04-31.744-31.744 3.584-59.392 20.48-78.336 49.152-17.408 27.136-25.6 59.904-21.504 93.184 2.56 32.768 17.408 63.488 40.448 86.016z m38.4-140.8c7.168-10.752 16.896-17.408 28.16-18.432h3.584c9.728 0 19.968 4.608 27.648 12.8 11.264 11.264 18.432 27.136 20.48 44.032 2.048 17.92-2.048 34.304-10.24 47.104-7.68 10.752-17.408 17.408-28.16 18.944-10.752 1.024-22.016-3.072-31.232-12.288-11.264-11.264-18.432-27.136-20.48-44.032-2.048-18.432 1.536-34.816 10.24-48.128zM179.2 490.496c11.776-0.512 22.528-2.56 32.256-5.632 30.208-9.728 53.248-32.768 66.048-65.024 11.264-29.184 11.776-62.976 1.536-95.232-10.752-32.256-31.744-58.88-58.368-75.776-29.184-17.92-61.952-22.528-92.16-12.288-30.208 9.728-53.248 32.768-66.048 65.024-11.264 29.184-11.776 62.976-1.536 95.232C71.68 429.056 92.672 455.68 119.296 472.576c18.432 11.776 38.912 17.92 59.904 17.92z m-17.92-188.928c7.68 0 15.36 2.56 23.04 7.168 13.312 8.192 23.552 21.504 29.184 38.4 5.632 16.896 5.632 33.792-0.512 48.128-4.608 11.776-13.312 20.992-23.552 24.064-10.24 3.584-22.016 1.536-33.28-5.632-12.8-8.192-23.04-21.504-29.184-38.4-5.632-16.896-5.632-33.792 0.512-48.128 4.608-11.776 13.312-20.992 23.552-24.064 3.072-1.024 6.144-1.536 10.24-1.536zM961.536 302.592c-12.8-32.256-36.352-55.296-66.048-65.024-30.208-9.728-62.976-5.632-92.16 12.288-27.136 16.896-48.128 44.032-57.856 75.776-10.752 32.256-10.24 66.048 1.536 95.232 12.8 32.256 36.352 55.296 66.048 65.024 11.264 3.584 22.528 5.632 32.768 5.632 20.48 0 40.96-6.144 59.392-17.408 27.136-16.896 47.616-43.52 58.368-75.776 9.728-32.768 9.216-66.56-2.048-95.744z m-64.512 73.216c-5.632 16.896-15.872 30.208-29.184 38.4-11.264 7.168-23.04 8.704-33.28 5.632-10.24-3.584-18.944-12.288-23.552-24.064-5.632-14.848-5.632-32.256-0.512-48.128 5.632-16.896 15.872-30.208 29.184-38.4 7.68-4.608 15.36-7.168 23.04-7.168 3.584 0 7.168 0.512 10.752 1.536 10.24 3.584 18.944 12.288 23.552 24.576 5.632 13.824 5.632 31.232 0 47.616zM782.336 483.84c-35.328-36.864-75.776-65.536-121.344-84.992-47.104-20.992-96.768-31.232-148.992-31.232-51.712 0-101.888 10.752-148.992 31.232-45.056 19.968-86.016 48.64-121.344 84.992-34.816 36.352-61.952 78.848-81.408 126.464-19.456 47.616-29.184 98.304-29.696 151.04v3.072c1.536 102.912 88.576 186.368 193.536 186.368 46.08 0 90.624-15.872 124.928-45.056 20.48-13.824 38.912-23.04 62.464-23.04 30.72 0 47.616 10.752 66.56 25.088 1.024 1.024 2.048 1.536 3.584 2.56 1.024 1.024 2.048 1.536 3.072 2.56l0.512 0.512 2.048 2.048c1.024 1.024 2.56 2.048 4.096 3.072 1.536 1.024 2.56 2.048 3.584 3.072l5.12 4.096 1.024-1.024c29.696 16.896 62.976 25.6 97.792 25.6 103.936 0 190.464-82.944 193.024-185.344 0.512-1.024 1.024-2.56 1.024-4.096-0.512-52.224-10.752-102.4-29.696-150.016-19.456-48.64-46.592-91.136-80.896-126.976z m42.496 276.992c-1.536 66.048-57.344 119.296-124.416 119.296-26.624 0-51.712-8.192-72.704-23.552-1.536-1.024-2.56-2.048-4.096-3.072-0.512-0.512-1.024-1.024-2.048-1.536-1.024-0.512-2.048-1.536-3.072-2.56l-1.024-0.512c-25.6-18.944-56.32-36.352-104.448-36.352-43.52 0-76.288 18.432-102.912 36.352-1.024 0.512-1.536 1.024-2.56 2.048-1.536 1.024-3.072 2.048-4.096 3.072-2.56 1.536-4.608 3.072-7.168 5.12-1.536 1.024-3.584 2.56-5.12 3.584-1.536 1.024-3.072 2.048-5.12 3.584-18.432 9.728-38.912 15.36-60.416 15.36-67.584 0-123.392-53.248-124.416-118.784 1.024-179.712 140.8-326.144 311.808-326.144 170.496-1.024 310.272 144.896 311.808 324.096z" fill="#67C23A"></path>
</svg>