<?xml version="1.0" standalone="no"?><!DOCTYPE svg PUBLIC "-//W3C//DTD SVG 1.1//EN" "http://www.w3.org/Graphics/SVG/1.1/DTD/svg11.dtd"><svg t="1568030746015" class="icon" viewBox="0 0 1024 1024" version="1.1" xmlns="http://www.w3.org/2000/svg" p-id="8166" width="32" height="32" xmlns:xlink="http://www.w3.org/1999/xlink"><defs><style type="text/css"></style></defs><path d="M916.8 143.6c7.7 0 14.2 6.5 14.2 14.2v560.4c0 7.7-6.5 14.2-14.2 14.2H107.2c-7.7 0-14.2-6.5-14.2-14.2V157.8c0-7.7 6.5-14.2 14.2-14.2h809.6m0-29.3H107.2c-23.9 0-43.5 19.6-43.5 43.5v560.4c0 23.9 19.6 43.5 43.5 43.5h809.6c23.9 0 43.5-19.6 43.5-43.5V157.8c0.1-23.9-19.5-43.5-43.5-43.5z" fill="" p-id="8167"></path><path d="M865.2 204.2l1.6 1.6-1.6 466-708-1.6 1.6-466h706.4m0-29.3H158.8c-17 0-30.9 13.9-30.9 30.9v464.5c0 17 13.9 30.9 30.9 30.9h706.4c17 0 30.9-13.9 30.9-30.9V205.8c0-17-13.9-30.9-30.9-30.9zM570.7 761.3v117.1H453.3V761.3h117.4m29.3-29.4H424v175.8h176V731.9z" fill="" p-id="8168"></path><path d="M332.3 880.4h359.3v29.3H332.3z m98.3-254l-95.5-244.5-73 100.1H144.6v-29.3h102.6L343 321.3l87.8 225 116.5-293.6 94.5 243.5 111.7-106.5 64.6 62.3h61.4v29.4h-73.2l-52.9-51-123 117.3L547 333z" fill="" p-id="8169"></path></svg>