<?xml version="1.0" standalone="no"?><!DOCTYPE svg PUBLIC "-//W3C//DTD SVG 1.1//EN" "http://www.w3.org/Graphics/SVG/1.1/DTD/svg11.dtd"><svg t="1571209751503" class="icon" viewBox="0 0 1035 1024" version="1.1" xmlns="http://www.w3.org/2000/svg" p-id="6375" xmlns:xlink="http://www.w3.org/1999/xlink" width="48.515625" height="48"><defs><style type="text/css"></style></defs><path d="M914.121348 1024H146.98427C64.201348 1024 0 931.955056 0 853.141573V213.83191C0 132.314607 61.612584 68.400899 140.195955 68.400899a43.146067 43.146067 0 1 1 0 86.292135c-31.237753 0-53.90382 24.909663-53.90382 59.138876V853.141573c0 37.968539 33.42382 84.566292 60.692135 84.566292H914.121348c20.997753 0 35.092135-43.778876 35.092135-84.566292V213.83191c0-9.894831-2.301124-59.138876-47.115505-59.138876a43.146067 43.146067 0 1 1 0-86.292135c77.317753 0 133.40764 61.15236 133.40764 145.431011V853.141573c0 82.322697-37.968539 170.858427-121.38427 170.858427z" p-id="6376" fill="#f4235b"></path><path d="M654.957303 132.314607h-274.408988A42.16809 42.16809 0 0 1 339.41573 89.168539 42.16809 42.16809 0 0 1 380.548315 46.022472h274.35146a42.16809 42.16809 0 0 1 41.190113 43.146067 42.16809 42.16809 0 0 1-41.132585 43.146068zM256 212.853933a44.411685 44.411685 0 0 1-43.146067-45.619776V45.619775a43.203596 43.203596 0 1 1 86.292134 0v121.614382A44.411685 44.411685 0 0 1 256 212.853933zM779.505618 212.853933a44.411685 44.411685 0 0 1-43.146067-45.619776V45.619775a43.203596 43.203596 0 1 1 86.292134 0v121.614382a44.411685 44.411685 0 0 1-43.146067 45.619776z" p-id="6377" fill="#f4235b"></path><path d="M402.696629 356.674157m43.146068 0l0 0q43.146067 0 43.146067 43.146068l0 224.35955q0 43.146067-43.146067 43.146068l0 0q-43.146067 0-43.146068-43.146068l0-224.35955q0-43.146067 43.146068-43.146068Z" p-id="6378" fill="#f4235b"></path><path d="M787.056021 671.796939m-11.152476 41.679796l0 0q-11.152476 41.679796-52.832272 30.527321l-283.422615-75.836835q-41.679796-11.152476-30.52732-52.832272l0 0q11.152476-41.679796 52.832272-30.52732l283.422615 75.836834q41.679796 11.152476 30.52732 52.832272Z" p-id="6379" fill="#f4235b"></path></svg>