<?xml version="1.0" standalone="no"?><!DOCTYPE svg PUBLIC "-//W3C//DTD SVG 1.1//EN" "http://www.w3.org/Graphics/SVG/1.1/DTD/svg11.dtd"><svg t="1558083228464" class="icon" style="" viewBox="0 0 1024 1024" version="1.1" xmlns="http://www.w3.org/2000/svg" p-id="1097" xmlns:xlink="http://www.w3.org/1999/xlink" width="200" height="200"><defs><style type="text/css"></style></defs><path d="M824.001 335.037c-9.083-9.083-24.049-9.083-33.132 0l-278.991 279.094-279.094-279.09399999c-9.083-9.083-24.049-9.083-33.132-1e-8-9.083 9.083-9.083 24.049 0 33.13200001l292.92499999 292.92499999c0.723 1.032 1.548 2.064 2.47700002 2.993 4.645 4.645 10.734 6.915 16.82399999 6.812 6.09 0.103 12.179-2.168 16.824-6.812 0.929-0.929 1.755-1.961 2.477-2.993l292.822-292.925c9.083-9.083 9.083-24.049 0-33.132z" p-id="1098"></path></svg>