<?xml version="1.0" standalone="no"?><!DOCTYPE svg PUBLIC "-//W3C//DTD SVG 1.1//EN" "http://www.w3.org/Graphics/SVG/1.1/DTD/svg11.dtd"><svg t="1568709002186" class="icon" viewBox="0 0 1024 1024" version="1.1" xmlns="http://www.w3.org/2000/svg" p-id="3663" xmlns:xlink="http://www.w3.org/1999/xlink" width="48" height="48"><defs><style type="text/css"></style></defs><path d="M874.496 1005.9776H149.504c-82.3296 0-149.504-67.1744-149.504-149.504V195.9936c0-82.3296 67.1744-149.504 149.504-149.504 22.3232 0 40.3456 18.0224 40.3456 40.3456 0 22.3232-18.0224 40.3456-40.3456 40.3456-37.6832 0-68.1984 30.5152-68.1984 68.1984V856.064c0 37.6832 30.5152 68.1984 68.1984 68.1984h724.992c37.6832 0 68.1984-30.5152 68.1984-68.1984V195.9936c0-37.6832-30.5152-68.1984-68.1984-68.1984-22.3232 0-40.3456-18.0224-40.3456-40.3456 0-22.3232 17.8176-40.7552 40.3456-40.7552 82.3296 0 149.504 67.1744 149.504 149.504v660.6848c-0.4096 82.1248-67.1744 149.0944-149.504 149.0944z" fill="" p-id="3664"></path><path d="M269.1072 225.4848c-22.3232 0-40.3456-18.0224-40.3456-40.3456V58.368c0-22.3232 18.0224-40.3456 40.3456-40.3456 22.3232 0 40.3456 18.0224 40.3456 40.3456v126.7712c0.4096 22.1184-17.8176 40.3456-40.3456 40.3456z m485.5808 0c-22.3232 0-40.3456-18.0224-40.3456-40.3456V58.368c0-22.3232 18.0224-40.3456 40.3456-40.3456 22.3232 0 40.3456 18.0224 40.3456 40.3456v126.7712c0 22.1184-18.2272 40.3456-40.3456 40.3456zM410.4192 790.9376c-10.24 0-20.6848-3.6864-28.672-11.6736l-169.7792-169.7792c-15.7696-15.7696-15.7696-41.5744 0-57.344s41.5744-15.7696 57.344 0l141.5168 141.5168 343.6544-343.6544c15.7696-15.7696 41.5744-15.7696 57.344 0 15.7696 15.7696 15.7696 41.5744 0 57.344L439.5008 779.6736c-8.192 7.168-18.432 11.264-29.0816 11.264zM604.16 127.3856h-184.32c-22.3232 0-40.3456-18.0224-40.3456-40.3456 0-22.3232 17.8176-40.3456 40.3456-40.3456h184.32c22.3232 0 40.3456 18.0224 40.3456 40.3456 0 22.1184-18.2272 40.3456-40.3456 40.3456z" fill="" p-id="3665"></path></svg>