<?xml version="1.0" standalone="no"?><!DOCTYPE svg PUBLIC "-//W3C//DTD SVG 1.1//EN" "http://www.w3.org/Graphics/SVG/1.1/DTD/svg11.dtd"><svg t="1568708502716" class="icon" viewBox="0 0 1024 1024" version="1.1" xmlns="http://www.w3.org/2000/svg" p-id="2502" xmlns:xlink="http://www.w3.org/1999/xlink" width="48" height="48"><defs><style type="text/css"></style></defs><path d="M359.7 414.4c-27.1 0-43-14.7-47.8-44l-52 13.6c10.5 46.6 37.8 72.1 81.7 76.7v40h33.6v-40.2c26.5-2.8 46.6-12.1 60.6-27.7s21-35.2 21-58.7c0-15.3-3.4-28.7-10.1-40.1-6.9-11.4-15.9-20.4-27.2-26.9-11.3-6.4-27-13.4-47-20.7-18.2-6.6-30.1-12.3-35.6-16.8-5.6-4.6-8.3-11-8.3-19.5 0-8.3 2.9-15.3 8.7-21.2 5.7-5.9 13.3-8.8 22.8-8.8 19 0 32.9 13.1 42 39.2l46.5-19.1c-11.1-38.1-35.5-59.3-73.1-63.8v-31h-33.6v31c-24.9 3.5-43.1 13.1-54.7 28.9-11.5 15.7-17.4 33.4-17.4 53.1 0 14.9 3.2 28.1 9.7 39.4 6.5 11.3 15 20.1 25.3 26.3 10.4 6.3 24.9 12.7 43.4 19.1 20.5 7.3 33.9 13.3 39.8 18 6 4.7 9 11.6 9 20.8 0 8.9-3 16.4-9 22.7-6.2 6.6-15.6 9.7-28.3 9.7zM745.9 730.1H293.2c-15.4 0-28 12.5-28 28s12.5 28 28 28H746c15.4 0 28-12.5 28-28s-12.6-28-28.1-28zM745.1 566.5H293.2c-15.4 0-28 12.5-28 28s12.5 28 28 28h451.9c15.4 0 28-12.5 28-28s-12.6-28-28-28zM544.9 458.8h200.2c15.4 0 28-12.5 28-28s-12.5-28-28-28H544.9c-15.4 0-28 12.5-28 28s12.5 28 28 28z" p-id="2503"></path><path d="M880.2 102c0-1.6-0.1-3.1-0.4-4.6 0.4-1.8 0.6-3.7 0.6-5.6 0-15.4-12.5-28-28-28H171.8c-15.4 0-28 12.5-28 28v839.1c0 15.5 12.5 28 28 28h681.3c7.4 0 14.5-2.9 19.8-8.2 5.2-5.3 8.2-12.4 8.2-19.8l-0.9-828.9zM199.8 903V119.8h624.5l0.9 783.1H199.8z" p-id="2504"></path></svg>