<?xml version="1.0" standalone="no"?><!DOCTYPE svg PUBLIC "-//W3C//DTD SVG 1.1//EN" "http://www.w3.org/Graphics/SVG/1.1/DTD/svg11.dtd"><svg t="1579504250447" class="icon" viewBox="0 0 1024 1024" version="1.1" xmlns="http://www.w3.org/2000/svg" p-id="6216" xmlns:xlink="http://www.w3.org/1999/xlink" width="128" height="128"><defs><style type="text/css"></style></defs><path d="M795.6 526.7c-11.6 0-21-9.4-21-21V290.1H657.4c-11.6 0-21-9.4-21-21s9.4-21 21-21h138.3c11.6 0 21 9.4 21 21v236.6c-0.1 11.5-9.5 21-21.1 21zM795.6 854.4H267c-11.6 0-21-9.4-21-21V269.1c0-11.6 9.4-21 21-21h119.2c11.6 0 21 9.4 21 21s-9.4 21-21 21H288v522.3h486.7V783c0-11.6 9.4-21 21-21s21 9.4 21 21v50.4c-0.1 11.6-9.5 21-21.1 21z" p-id="6217"></path><path d="M607.6 321.2H445.2c-34.2 0-62.1-27.8-62.1-62.1s27.8-62.1 62.1-62.1h162.4c34.2 0 62.1 27.8 62.1 62.1s-27.9 62.1-62.1 62.1zM445.2 239c-11.1 0-20.1 9-20.1 20.1s9 20.1 20.1 20.1h162.4c11.1 0 20.1-9 20.1-20.1s-9-20.1-20.1-20.1H445.2zM852.5 791.3c-10.2 0-19.1-7.4-20.7-17.8-9.8-63.3-39.1-108.1-87.1-133.3-10.3-5.4-14.2-18.1-8.8-28.4 5.4-10.3 18.1-14.2 28.4-8.8 59.5 31.3 97.2 88 109 164 1.8 11.5-6.1 22.2-17.5 24-1.1 0.2-2.2 0.3-3.3 0.3z" p-id="6218"></path><path d="M754.8 704.8L648.7 597.7l145.7-38.4zM526.1 483.5h-181c-11.6 0-21-9.4-21-21s9.4-21 21-21h181c11.6 0 21 9.4 21 21s-9.4 21-21 21z" p-id="6219"></path><path d="M610.1 584.2h-265c-11.6 0-21-9.4-21-21s9.4-21 21-21h265c11.6 0 21 9.4 21 21s-9.4 21-21 21z" p-id="6220"></path></svg>