<?xml version="1.0" standalone="no"?><!DOCTYPE svg PUBLIC "-//W3C//DTD SVG 1.1//EN" "http://www.w3.org/Graphics/SVG/1.1/DTD/svg11.dtd"><svg t="1579504399921" class="icon" viewBox="0 0 1030 1024" version="1.1" xmlns="http://www.w3.org/2000/svg" p-id="6986" xmlns:xlink="http://www.w3.org/1999/xlink" width="128.75" height="128"><defs><style type="text/css"></style></defs><path d="M574.976 701.44H311.808c-14.336 0-25.6-11.264-25.6-25.6s11.264-25.6 25.6-25.6h263.168c14.336 0 25.6 11.264 25.6 25.6s-11.264 25.6-25.6 25.6zM605.184 282.112H232.448c-14.336 0-25.6-11.264-25.6-25.6s11.264-25.6 25.6-25.6h372.736c14.336 0 25.6 11.264 25.6 25.6s-11.264 25.6-25.6 25.6zM605.184 454.144H232.448c-14.336 0-25.6-11.264-25.6-25.6s11.264-25.6 25.6-25.6h372.736c14.336 0 25.6 11.264 25.6 25.6s-11.264 25.6-25.6 25.6z" p-id="6987"></path><path d="M377.856 801.28c-6.656 0-13.312-2.56-17.92-7.68l-99.84-99.84c-9.728-9.728-10.24-26.112 0-36.352l99.84-100.864c9.728-10.24 26.112-10.24 36.352 0 10.24 9.728 10.24 26.112 0 36.352l-81.92 82.944 81.92 81.92c10.24 10.24 10.24 26.112 0 36.352-5.12 4.608-11.776 7.168-18.432 7.168z" p-id="6988"></path><path d="M769.024 694.272m-66.56 0a66.56 66.56 0 1 0 133.12 0 66.56 66.56 0 1 0-133.12 0Z" p-id="6989"></path><path d="M743.424 710.656h51.2v140.288h-51.2z" p-id="6990"></path><path d="M868.352 898.56h-198.656c-14.336 0-25.6-11.264-25.6-25.6s11.264-25.6 25.6-25.6h198.656c14.336 0 25.6 11.264 25.6 25.6s-11.264 25.6-25.6 25.6zM825.344 1005.056h-112.128c-14.336 0-25.6-11.264-25.6-25.6s11.264-25.6 25.6-25.6h112.128c14.336 0 25.6 11.264 25.6 25.6s-11.264 25.6-25.6 25.6zM322.56 1005.056H43.52c-14.336 0-25.6-11.264-25.6-25.6V35.84c0-14.336 11.264-25.6 25.6-25.6h733.696c14.336 0 25.6 11.264 25.6 25.6v276.992c0 14.336-11.264 25.6-25.6 25.6s-25.6-11.264-25.6-25.6V61.44H69.12v892.416H322.56c14.336 0 25.6 11.264 25.6 25.6s-11.264 25.6-25.6 25.6z" p-id="6991"></path></svg>