<?xml version="1.0" standalone="no"?><!DOCTYPE svg PUBLIC "-//W3C//DTD SVG 1.1//EN" "http://www.w3.org/Graphics/SVG/1.1/DTD/svg11.dtd"><svg t="1558085510792" class="icon" style="" viewBox="0 0 1024 1024" version="1.1" xmlns="http://www.w3.org/2000/svg" p-id="19336" xmlns:xlink="http://www.w3.org/1999/xlink" width="200" height="200"><defs><style type="text/css"></style></defs><path d="M511.98772 319.615365c79.643921 0 144.285151-64.575738 144.285151-144.285151 0-79.644945-64.576761-144.285151-144.285151-144.285151-79.709413 0-144.286174 64.639183-144.286174 144.285151C367.701546 255.04065 432.278307 319.615365 511.98772 319.615365L511.98772 319.615365zM511.98772 79.138408c53.033867 0 96.190783 43.162032 96.190783 96.191806 0 53.03489-43.093471 96.191806-96.190783 96.191806-53.099359 0-96.191806-43.156916-96.191806-96.191806C415.795914 122.30044 458.95283 79.138408 511.98772 79.138408L511.98772 79.138408zM511.98772 79.138408" p-id="19337"></path><path d="M608.178503 367.714849 415.795914 367.714849c-23.278169 0-43.220361 16.672728-47.324842 39.501666l-48.094368 264.523629c-2.568499 14.046924 1.282203 28.411073 10.386558 39.375799 9.105379 10.962679 22.701025 17.314341 36.938284 17.314341l30.715559 0 17.504676 220.275869c1.991354 25.010627 22.834055 44.24776 47.971571 44.24776l96.186689 0c25.075095 0 45.915749-19.300578 47.907103-44.24776l17.505699-220.275869 30.714536 0c14.237259 0 27.770484-6.351662 36.873816-17.314341 9.105379-10.964726 12.950963-25.397437 10.386558-39.375799l-48.093345-264.523629C651.335419 384.387577 631.457696 367.714849 608.178503 367.714849L608.178503 367.714849zM581.182662 680.3308l-21.101597 264.529769-96.186689 0L442.860317 680.3308l-75.15877 0 48.094368-264.523629 72.14411 0 0 144.285151c0 13.34289 10.709923 24.052812 24.047696 24.052812 13.272281 0 24.046672-10.709923 24.046672-24.052812L536.034393 415.808194l72.14411 0 48.094368 264.523629L581.182662 680.331823 581.182662 680.3308zM581.182662 680.3308" p-id="19338"></path><path d="M810.181193 310.061778c63.738673 0 115.428939-51.748594 115.428939-115.492384 0-63.74072-51.690266-115.429962-115.428939-115.429962-63.744813 0-115.429962 51.690266-115.429962 115.429962C694.751231 258.313184 746.43638 310.061778 810.181193 310.061778L810.181193 310.061778zM810.181193 117.682259c42.451858 0 76.948533 34.501792 76.948533 76.886111 0 42.451858-34.496675 76.953649-76.948533 76.953649-42.389436 0-76.954673-34.501792-76.954673-76.953649C733.22652 152.185075 767.79278 117.682259 810.181193 117.682259L810.181193 117.682259zM810.181193 117.682259" p-id="19339"></path><path d="M925.032988 380.0242c-3.400446-18.274202-19.305695-31.547507-37.902238-31.547507L733.22652 348.476693c-17.701151 0-32.770358 12.246929-36.938284 29.306466 2.823302 6.667863 5.258771 13.464663 6.604418 20.837584l14.174837 77.790714 16.159028-89.459474 57.712423 0 0 115.492384c0 10.582009 8.596795 19.237133 19.243273 19.237133 10.641361 0 19.237133-8.655124 19.237133-19.237133L829.41935 386.951983l57.7114 0 38.480406 211.685213-60.154032 0-16.800641 211.620745-76.953649 0-19.237133-105.873306-28.856211 48.092321 9.6815 60.794621c1.604544 20.005636 18.279319 35.397185 38.410821 35.397185l76.953649 0c20.070104 0 36.742832-15.391549 38.3484-35.397185l14.040784-176.22356 24.566512 0c11.477402 0 22.25077-5.063319 29.560246-13.851473 7.309476-8.786107 10.386558-20.263509 8.337899-31.487132L925.032988 380.0242 925.032988 380.0242zM925.032988 380.0242" p-id="19340"></path><path d="M213.797317 310.061778c63.739696 0 115.429962-51.748594 115.429962-115.492384 0-63.74072-51.690266-115.429962-115.429962-115.429962-63.74379 0-115.428939 51.690266-115.428939 115.429962C98.368378 258.313184 150.053528 310.061778 213.797317 310.061778L213.797317 310.061778zM213.797317 117.682259c42.452881 0 76.95058 34.501792 76.95058 76.886111 0 42.451858-34.496675 76.953649-76.95058 76.953649-42.451858 0-76.953649-34.501792-76.953649-76.953649C136.843668 152.185075 171.34546 117.682259 213.797317 117.682259L213.797317 117.682259zM213.797317 117.682259" p-id="19341"></path><path d="M213.797317 521.619078c10.642384 0 19.238157-8.655124 19.238157-19.238157l0-115.428939 57.712423 0 16.286941 89.523943 14.109346-77.786621c1.346671-7.377014 3.78214-14.237259 6.66991-20.841677-4.295839-17.060561-19.300578-29.370935-37.066197-29.370935L136.843668 348.476693c-18.596544 0-34.501792 13.274328-37.833677 31.547507L60.467163 591.709413c-1.986237 11.223622 1.027399 22.701025 8.336876 31.487132 7.309476 8.78713 18.21485 13.851473 29.565363 13.851473l24.561395 0 14.041808 176.22356c1.604544 20.005636 18.277272 35.397185 38.347376 35.397185l76.953649 0c20.070104 0 36.742832-15.391549 38.410821-35.397185l9.682523-60.794621-28.856211-48.092321-19.238157 105.804744-76.953649 0-16.865109-211.615629-60.08547 0 38.47529-211.685213 57.712423 0 0 115.492384C194.556091 513.026376 203.151863 521.619078 213.797317 521.619078L213.797317 521.619078zM213.797317 521.619078" p-id="19342"></path></svg>