<?xml version="1.0" standalone="no"?><!DOCTYPE svg PUBLIC "-//W3C//DTD SVG 1.1//EN" "http://www.w3.org/Graphics/SVG/1.1/DTD/svg11.dtd"><svg t="1558267349948" class="icon" style="" viewBox="0 0 1024 1024" version="1.1" xmlns="http://www.w3.org/2000/svg" p-id="3253" xmlns:xlink="http://www.w3.org/1999/xlink" width="200" height="200"><defs><style type="text/css"></style></defs><path d="M960 928V672a32 32 0 0 0-32-32H96a32 32 0 0 0-32 32v256a32 32 0 0 0 32 32h832a32 32 0 0 0 32-32zM451.776 395.712a60.224 60.224 0 1 0 120.512 0.064 60.224 60.224 0 0 0-120.512-0.064zM959.296 576c35.712 0 64.704 28.992 64.704 64.704v318.592c0 35.712-28.992 64.704-64.704 64.704H64.704A64.704 64.704 0 0 1 0 959.296V640.704C0 604.992 28.992 576 64.704 576H480v-60.736a124.096 124.096 0 0 1-92.224-119.552c0-68.544 55.744-124.288 124.224-124.288s124.224 55.744 124.224 124.288c0 57.408-39.296 105.344-92.224 119.552V576h415.296z" p-id="3254"></path><path d="M192 864h128V736H192z m256 0h128v-64H448z m256 0h128V736H704zM128 448a32 32 0 0 0 32-32c0-194.112 157.952-352 352-352s352 157.888 352 352a32 32 0 0 0 64 0C928 186.624 741.376 0 512 0A416.512 416.512 0 0 0 96 416a32 32 0 0 0 32 32" p-id="3255"></path><path d="M512 128a288.32 288.32 0 0 0-288 288 32 32 0 0 0 64 0c0-123.52 100.48-224 224-224s224 100.48 224 224a32 32 0 0 0 64 0c0-158.784-129.216-288-288-288" p-id="3256"></path></svg>