<?xml version="1.0" standalone="no"?><!DOCTYPE svg PUBLIC "-//W3C//DTD SVG 1.1//EN" "http://www.w3.org/Graphics/SVG/1.1/DTD/svg11.dtd"><svg t="1558085271735" class="icon" style="" viewBox="0 0 1024 1024" version="1.1" xmlns="http://www.w3.org/2000/svg" p-id="15017" xmlns:xlink="http://www.w3.org/1999/xlink" width="200" height="200"><defs><style type="text/css"></style></defs><path d="M759.80696 517.032145l-38.436486 70.0635c-5.014083 9.352637-8.839669 16.693139-11.689894 22.429713-8.904693-17.708238-24.568284-46.759574-47.868597-88.783225l-2.091609-3.7714h-51.206503l63.517738 107.864195h-46.709v38.367849h61.155194v18.31513h-61.155194v38.743544h61.155194v47.836085h44.873875v-47.781898h58.915474v-38.743544h-58.915474v-18.311518h58.915474v-38.367849H745.212655l67.722631-108.156803-53.128326 0.296221z m177.490587-55.559506c-36.301527-47.037733-87.800638-82.98524-145.00381-101.231734 0.310671-33.6536 1.224621-143.48658 1.224622-144.992972 0-37.005955-37.598397-68.022465-108.731183-89.697175-60.172607-18.333192-141.868202-28.849039-224.134564-28.849039-82.223012 0-163.875258 10.519459-224.029803 28.859876-71.121948 21.685547-108.713121 52.741794-108.71312 89.848898l0.72249 85.174386c-31.529478 10.288262-56.126662 22.343014-73.112409 35.824683-19.218243 15.251771-28.957413 32.447041-28.957413 51.155928l1.72314 158.532441c0.115598 14.168035 12.325685 29.564304 36.283464 45.740863 2.026585 1.379957 6.329015 3.778624 12.795304 7.134592l1.603928 167.559959 0.227585 0.866988c8.706009 33.061158 49.512263 60.606102 118.007959 79.658172 58.539779 16.28132 136.113566 25.619507 212.834815 25.619507 36.359326 0 74.77775-2.543166 114.204047-7.564474 52.600909 40.170463 114.308808 61.393616 178.46595 61.393616 162.159343 0 294.082465-130.420343 294.082465-290.726498 0.036125-63.561087-20.536788-123.834843-59.493467-174.308017zM246.715999 163.947507c56.928626-17.686563 132.909322-27.429346 213.936613-27.429346 81.067028 0 157.080236 9.728332 214.026924 27.396833 48.424915 15.024186 78.509412 34.668699 78.509412 51.267915 0 2.344481-1.181272 5.342816-3.663026 9.352637l-0.046962 0.072249c-1.127085 1.66534-3.059747 3.681088-5.014083 5.667937l-0.14811 0.158948c-1.683402 1.835125-3.778624 3.688313-5.548726 5.205542l-0.054187 0.04335a111.906528 111.906528 0 0 1-11.18415 7.828183c-1.426918 0.8995-3.218694 1.84235-5.115232 2.846611l-1.575029 0.830864c-5.248892 2.839387-10.678407 5.77631-17.126633 8.507324a30.380719 30.380719 0 0 1-1.625603 0.614117l-0.17701 0.061412c-0.841701 0.303446-1.690627 0.606892-2.423955 0.917562-13.618943 5.483702-30.066435 10.678407-48.923433 15.446844-1.127085 0.296221-2.261395 0.603279-3.392092 0.906725l-0.646629 0.173398c-2.980273 0.809189-6.065306 1.65089-9.442949 2.398668-5.989445 1.351057-12.491858 2.517879-19.366353 3.746112l-0.664691 0.119211-5.736574 1.036773-4.865972 0.852539 0.018062 0.093924-0.119211 0.018062-0.01445-0.093924c-4.829848 0.848926-9.825869 1.726752-15.100048 2.528716-8.066605 1.224621-16.382468 2.178308-25.186013 3.189795l-3.178957 0.364858c-35.886095 3.926735-69.322948 5.837722-102.221545 5.837722-81.059803 0-157.047724-9.731945-213.9619-27.396834-48.38879-15.020574-78.448-34.668699-78.448-51.267914 0.007225-16.599215 30.077273-36.258177 78.480512-51.296813z m365.674033 153.2113l0.838089 4.143482c0.455169-0.072249 0.921175-0.148111 1.50278-0.22036l0.33957-0.050574c41.586544-7.203229 99.20876-21.024469 137.836706-46.00096l-0.491294 74.239495a292.030593 292.030593 0 0 0-49.638698-4.233794c-42.269297 0-83.111676 8.897468-121.392826 26.446759-35.723535 16.378856-67.527559 39.462422-94.541472 68.614907l-5.700449 0.307058c-6.71916 0.364858-13.669517 0.744165-20.489826 0.744165-77.667711 0-151.484548-8.948043-207.842407-25.200462-46.203257-13.322722-78.13733-31.128496-83.364547-46.481416l-0.502131-54.97429-0.231197-39.451584c26.529845 17.123021 66.436599 31.56199 115.439506 41.763553 52.445573 10.920441 115.150509 16.935173 176.5658 16.935174 30.207321 0 61.245506-1.455818 92.272853-4.334942 7.174329-0.718878 14.341433-1.524455 21.494088-2.41673l0.184235-0.0289c0.682753-0.097536 1.444981-0.17701 2.22527-0.256484l0.13366-0.01445c0.9573-0.090311 1.907374-0.20591 2.853837-0.332345 3.858098-0.520193 7.716197-1.101798 11.115514-1.611154l1.575029-0.234809c6.921457-1.004262 13.152937-1.925437 19.348291-2.987498l1.155985-0.17701-0.686366-4.186831zM66.891768 387.435442c0-10.884317 16.378856-28.527531 62.322016-45.42658l0.498518 32.819123 0.22036 0.838089c7.712584 29.567917 39.867017 54.063952 95.556571 72.805351 16.906274 5.689611 36.008918 10.783168 56.841927 15.154235l-0.032512 0.242034c-76.681512-5.03937-136.648209-19.308554-183.209099-43.584229l-0.184235-0.097537c-21.093105-11.075777-31.865436-21.988993-32.009934-32.400079l-0.003612-0.350407z m30.102559 179.52801c-19.070132-10.2702-28.765953-18.456016-28.823752-24.326249-0.252872-31.251319-0.476844-74.250332-0.364857-95.130303 3.337905 2.131346 6.744447 4.161544 10.208788 6.086981 1.13431 0.664691 2.203596 1.181272 3.146446 1.636441l0.14811 0.075862c0.393757 0.187847 0.78029 0.375695 1.090961 0.534642a252.875229 252.875229 0 0 0 25.074027 11.426185l0.375695 0.166173c0.726103 0.332346 1.546129 0.715265 2.445629 1.033161 9.146728 3.504078 19.525301 6.914232 31.659527 10.396636 1.668953 0.509356 3.312618 0.9573 4.99602 1.416081l0.812802 0.220359c11.223887 3.106708 22.566986 5.852172 35.70186 8.651822 11.812717 2.470917 24.626083 4.725087 38.075241 6.701098 1.242683 0.187847 2.43118 0.361245 3.623289 0.53103l0.444331 0.065025c1.09096 0.155335 2.185533 0.310671 3.428217 0.498518 13.250473 1.87125 26.53707 3.460729 39.856179 4.775661 11.838004 1.130697 25.117376 2.069935 40.643694 2.875512 1.48833 0.057799 2.994722 0.133661 4.49389 0.213134 1.564192 0.079474 3.124771 0.158948 4.692574 0.223972 15.222871 0.643016 28.520306 0.9573 40.647307 0.9573 21.299015 0 41.734654-1.007874 60.6928-2.106059l6.368752-0.433495c4.11097-0.278159 8.348376-0.55993 12.668868-0.8995 1.29687-0.108374 2.59374-0.227584 3.879773-0.357633-17.935823 33.826997-28.697316 70.590918-31.991872 109.276663-22.035955 0.903113-41.666018 1.343832-59.991984 1.343832-74.886123 0-138.017328-7.466938-192.988006-22.827082-18.824486-5.324754-40.658144-12.148675-59.858324-22.400813l-1.155985-0.624954z m316.143708 118.650975c-1.116248 0.043349-2.080772 0.068637-3.027234 0.068637-95.563796 0-162.383315-15.006124-201.610928-27.591906-23.72297-7.611436-44.10081-16.555866-59.656027-26.143313l0.787515-3.446279c2.358931 0.520193 4.660063 1.058448 6.957582 1.687015 19.807073 5.494539 41.004939 9.963142 64.81822 13.65868 41.467333 6.220642 84.271273 9.244264 130.864674 9.244264 18.90396 0 38.006604-0.921175 57.535518-1.954337 0.603279 13.301047 1.661728 24.26845 3.33068 34.477239z m-2.969435 147.171281c-77.747185 0-151.603759-8.940818-207.96523-25.175175-46.206869-13.308272-78.166229-31.128496-83.429572-46.510316l-0.773064-101.704964c26.016877 18.011684 63.91872 33.606638 109.64152 45.105072 54.779217 13.774278 117.874298 21.056981 182.464934 21.05698 4.87681 0 9.554935-0.252872 14.312534-0.538255 12.791691 39.205938 33.368216 75.326842 59.533203 104.490165-26.486496 2.236108-49.942144 3.276494-73.784325 3.276493z m472.020997-19.716761c-47.969746 47.43149-111.686168 73.549516-179.412412 73.549516-139.917478 0-253.753055-112.556769-253.753055-250.910056 0-138.327999 113.835577-250.859481 253.753055-250.859481 139.913866 0 253.749443 112.535094 253.749443 250.863094 0.0289 66.935117-26.370897 129.921824-74.337031 177.356927z" fill="" p-id="15018"></path></svg>