<?xml version="1.0" standalone="no"?><!DOCTYPE svg PUBLIC "-//W3C//DTD SVG 1.1//EN" "http://www.w3.org/Graphics/SVG/1.1/DTD/svg11.dtd"><svg t="1578745920566" class="icon" viewBox="0 0 1025 1024" version="1.1" xmlns="http://www.w3.org/2000/svg" p-id="13757" xmlns:xlink="http://www.w3.org/1999/xlink" width="128.125" height="128"><defs><style type="text/css"></style></defs><path d="M671.968689 703.989959c-52.997998 0-95.995235 42.999283-95.995235 95.995235 0 52.997998 42.99826 95.996259 95.995235 95.996259s95.995235-42.99826 95.995235-95.996259C767.963925 746.988219 724.966688 703.989959 671.968689 703.989959zM671.968689 831.983947c-17.655084 0-31.998753-14.343669-31.998753-31.999776 0-17.654061 14.342645-31.998753 31.998753-31.998753s31.998753 14.344692 31.998753 31.998753C703.967442 817.640278 689.624797 831.983947 671.968689 831.983947z" p-id="13758"></path><path d="M1010.076906 854.170226l0.812504-1.561564-306.922991-533.161439 0-255.425158 21.373775 0c23.49918 0 42.622707-14.310923 42.622707-31.998753s-19.123527-31.998753-42.622707-31.998753l-69.371904 0-287.985706 0-69.371904 0c-23.49918 0-42.622707 14.310923-42.622707 31.998753s19.123527 31.998753 42.622707 31.998753l21.373775 0 0 256.112819-301.923122 525.223661 0.562818 1.063214c-10.749821 18.061336-18.624154 38.686052-18.624154 61.995921 0 63.935084 46.810072 115.55776 104.494808 115.55776 2.624778 0 825.959749 0 825.959749 0 52.247916-6.311746 93.495301-55.998329 93.495301-115.55776C1023.951901 888.480626 1018.201949 870.481711 1010.076906 854.170226zM639.97096 64.021042l0 255.425158c0 11.186772 2.937909 22.216979 8.530272 31.935308l55.619706 96.620475-383.803909 0 55.166382-95.963513c5.562687-9.718329 8.499573-20.717837 8.499573-31.904609l0-256.112819L639.97096 64.021042zM925.48743 959.977935l-820.990579 0c-21.967292 0-40.498326-23.624023-40.498326-51.561278 0-8.935501 3.062752-18.248601 9.624185-29.248109 2.062983-3.469005 3.718691-7.093551 5.062291-10.842942l204.841137-356.327142 457.433786 0 208.088084 361.482553c0.999769 3.125174 2.250248 6.218626 3.74939 9.218956 4.875026 9.81145 7.155973 17.968216 7.155973 25.716682C959.954395 936.29149 942.550021 956.196822 925.48743 959.977935z" p-id="13759"></path><path d="M447.979466 575.996994c-35.373613 0-63.997506 28.622869-63.997506 63.996482 0 35.37259 28.623892 63.996482 63.997506 63.996482 35.37259 0 63.997506-28.623892 63.997506-63.996482C511.976972 604.61884 483.353079 575.996994 447.979466 575.996994z" p-id="13760"></path></svg>