<?xml version="1.0" standalone="no"?><!DOCTYPE svg PUBLIC "-//W3C//DTD SVG 1.1//EN" "http://www.w3.org/Graphics/SVG/1.1/DTD/svg11.dtd"><svg t="1568733709693" class="icon" viewBox="0 0 1066 1024" version="1.1" xmlns="http://www.w3.org/2000/svg" p-id="5104" xmlns:xlink="http://www.w3.org/1999/xlink" width="49.96875" height="48"><defs><style type="text/css"></style></defs><path d="M383.99936 491.092515c0-82.346529 66.901222-149.333084 149.162418-149.333085a149.418418 149.418418 0 0 1 149.119752 149.333085c0 82.346529-66.901222 149.333084-149.119752 149.333084A149.418418 149.418418 0 0 1 383.99936 491.092515zM742.612096 1.791997c209.279651 90.026517 337.919437 294.14351 320.127466 521.471131-0.895999 11.135981-10.197316 10.666649-21.205298 10.666649h-0.981332l-255.444907-2.346663c-5.845324-0.298666-11.391981 1.578664-15.231975-2.943995-3.839994-4.479993-5.631991-8.106653-4.991991-13.994643a232.874279 232.874279 0 0 0-147.157089-242.772929 20.565299 20.565299 0 0 1-12.074646-11.391981 20.863965 20.863965 0 0 1 0.511999-16.725306l108.799819-231.551614a21.205298 21.205298 0 0 1 27.647954-10.410649zM296.959505 545.321758a21.333298 21.333298 0 0 1-14.847975 8.277319l-254.420909 24.575959-2.047997 0.085334a21.333298 21.333298 0 0 1-21.077298-18.55997A531.924447 531.924447 0 0 1 296.788839 13.354644a21.333298 21.333298 0 0 1 28.159953 9.130652l120.533132 225.70629a21.247965 21.247965 0 0 1-10.02665 29.482618 234.495609 234.495609 0 0 0-134.357109 251.220915 21.205298 21.205298 0 0 1-4.181327 16.469305z m408.31932 137.130438l141.781097 212.948978a21.418631 21.418631 0 0 1-5.333325 29.183952A527.785787 527.785787 0 0 1 532.180446 1023.998293a527.785787 527.785787 0 0 1-309.54615-99.413167 21.418631 21.418631 0 0 1-5.290658-29.183952l141.823763-212.948978a21.333298 21.333298 0 0 1 30.719949-5.119992c81.066532 62.29323 203.604994 62.29323 284.586193 0a21.333298 21.333298 0 0 1 30.719948 5.119992z" p-id="5105"></path></svg>