<?xml version="1.0" standalone="no"?><!DOCTYPE svg PUBLIC "-//W3C//DTD SVG 1.1//EN" "http://www.w3.org/Graphics/SVG/1.1/DTD/svg11.dtd"><svg t="1573010263960" class="icon" viewBox="0 0 1024 1024" version="1.1" xmlns="http://www.w3.org/2000/svg" p-id="5360" xmlns:xlink="http://www.w3.org/1999/xlink" width="48" height="48"><defs><style type="text/css"></style></defs><path d="M834.56 665.6h-18.773333V428.373333c0-139.946667-97.28-262.826667-232.106667-293.546666-5.12-34.133333-35.84-61.44-71.68-61.44s-66.56 27.306667-71.68 61.44c-136.533333 32.426667-232.106667 153.6-232.106667 295.253333V665.6h-17.066666c-46.08 0-83.626667 37.546667-83.626667 83.626667v6.826666c0 34.133333 22.186667 64.853333 52.906667 78.506667 1.706667 0 3.413333 1.706667 6.826666 1.706667h215.04c6.826667 66.56 63.146667 117.76 131.413334 117.76s122.88-51.2 131.413333-117.76h216.746667c1.706667 0 3.413333 0 6.826666-1.706667 32.426667-11.946667 52.906667-44.373333 52.906667-78.506667v-6.826666c-3.413333-46.08-40.96-83.626667-87.04-83.626667z m-324.266667 252.586667c-47.786667 0-87.04-32.426667-95.573333-78.506667h191.146667c-8.533333 44.373333-47.786667 78.506667-95.573334 78.506667z m373.76-162.133334c0 18.773333-11.946667 37.546667-29.013333 44.373334H168.96c-17.066667-8.533333-29.013333-25.6-29.013333-44.373334v-6.826666c0-27.306667 22.186667-49.493333 49.493333-49.493334h34.133333c10.24 0 17.066667-6.826667 17.066667-17.066666V428.373333c0-128 92.16-238.933333 218.453333-264.533333 8.533333-1.706667 13.653333-8.533333 13.653334-17.066667v-1.706666c0-22.186667 17.066667-39.253333 39.253333-39.253334 22.186667 0 39.253333 17.066667 39.253333 39.253334v1.706666c0 8.533333 5.12 15.36 13.653334 17.066667C691.2 187.733333 783.36 298.666667 783.36 426.666667v256c0 10.24 6.826667 17.066667 17.066667 17.066666H836.266667c27.306667 0 49.493333 22.186667 49.493333 49.493334v6.826666z" p-id="5361"></path></svg>