<?xml version="1.0" standalone="no"?><!DOCTYPE svg PUBLIC "-//W3C//DTD SVG 1.1//EN" "http://www.w3.org/Graphics/SVG/1.1/DTD/svg11.dtd"><svg t="1568181495407" class="icon" viewBox="0 0 1024 1024" version="1.1" xmlns="http://www.w3.org/2000/svg" p-id="2207" xmlns:xlink="http://www.w3.org/1999/xlink" width="32" height="32"><defs><style type="text/css"></style></defs><path d="M673.79733333 402.4128H264.75306667c-14.03946667 0-25.55306667 13.9008-25.55306667 31.17226667s11.5136 31.1712 25.55306667 31.1712h409.04426666c14.18133333 0 25.55733333-13.89973333 25.55733334-31.1712s-11.37706667-31.17226667-25.55733334-31.17226667z m0 155.58186667H264.75306667c-14.03946667 0-25.55306667 13.90613333-25.55306667 31.17653333 0 17.26613333 11.5136 31.17226667 25.55306667 31.17226667h409.04426666c14.18133333 0 25.55733333-13.90613333 25.55733334-31.17226667 0-17.26933333-11.37706667-31.17653333-25.55733334-31.17653333z m0 0" p-id="2208"></path><path d="M962.8864 122.1344c-14.18133333 0-33.38666667 13.89973333-33.38666667 31.1712V869.45066667c0 34.40213333-22.88533333 62.20266667-51.11253333 62.20266666H178.18026667c-28.22186667 0-51.11146667-27.9392-51.11146667-62.20266666V153.3056c0-34.40213333 22.88426667-62.20266667 51.11146667-62.20266667h582.18346666c28.22186667 0 51.11253333 27.94133333 51.11253334 62.20266667v653.792c0 17.27573333 19.20533333 31.17546667 33.38666666 31.17546667s33.38666667-13.90506667 33.38666667-31.17653334V90.95253333c0-34.40213333-22.88746667-62.20266667-51.11466667-62.20266666H136.96746667c-42.40746667 0-76.66666667 41.8464-76.66666667 93.3792v778.35306666c0 51.5328 34.26133333 93.3792 76.66666667 93.3792h766.83733333c42.26666667 0 92.32746667-41.85173333 92.32746667-93.3792V153.16693333c0.1408-17.1328-19.20533333-31.03253333-33.2448-31.03253333z m0 0" p-id="2209"></path><path d="M673.79733333 713.72266667H264.75306667c-14.03946667 0-25.55306667 13.90506667-25.55306667 31.1712 0 17.27146667 11.5136 31.1712 25.55306667 31.1712h409.04426666c14.18133333 0 25.55733333-13.89866667 25.55733334-31.1712 0-17.26613333-11.37706667-31.1712-25.55733334-31.1712zM256.47466667 325.32266667c4.208 0 7.7248-1.5424 10.528-4.4928 2.672-2.944 4.07466667-7.4432 4.07466666-13.33333334v-90.29333333l58.55466667 89.72586667c1.68533333 2.38933333 3.37066667 4.91946667 5.05386667 7.16373333 1.69066667 2.3872 3.51146667 4.352 5.4752 6.18026667 1.9648 1.68533333 4.07253333 3.09013333 6.32213333 3.792 2.2432 0.84266667 4.77333333 1.2672 7.5776 1.2672 11.23626667 0 16.85013333-6.7424 16.85013333-20.22506667V183.92746667c0-5.90186667-1.26933333-10.38933333-3.93813333-13.33333334-2.52266667-2.95146667-6.176-4.49386667-10.66986667-4.49386666-4.352 0-7.86346667 1.5424-10.3872 4.49386666-2.53013333 2.944-3.79733333 7.4368-3.79733333 13.33333334v91.696l-59.95946667-90.85546667c-1.6832-2.66346667-3.37173333-5.19253333-4.91413333-7.72266667-1.5424-2.38933333-3.09013333-4.4928-4.63253333-6.03733333-1.54133333-1.5424-3.2256-2.8096-5.19466667-3.6512-1.96373333-0.84053333-4.352-1.40266667-7.16266667-1.40266667-3.51146667 0-6.8832 0.98133333-9.97546666 2.94506667-3.08906667 1.96906667-5.33333333 4.63893333-6.5952 7.7248-1.12213333 2.81066667-1.6896 6.88213333-1.6896 11.94133333v118.79146667c0 5.75466667 1.2672 10.2528 3.9392 13.33866667 2.5248 3.08906667 6.03626667 4.63146667 10.52586666 4.63146666l0.01386667-0.00426666z m249.94346666-132.56106667c4.9152 0 8.71253333-1.12 11.09546667-3.37066667 2.38933333-2.2432 3.65653333-5.19466667 3.65653333-8.70613333s-1.2672-6.45653333-3.65653333-8.704c-2.38506667-2.25066667-6.176-3.3728-11.09546667-3.3728h-82.42346666c-4.35306667 0-8 0.70186667-10.80746667 1.96373333-2.8128 1.26186667-4.91626667 3.37066667-6.32533333 6.176-1.2608 2.81066667-1.95946667 6.46186667-1.95946667 10.95466667v115.85066667c0 6.74346667 1.54026667 11.65546667 4.49066667 14.60266666 2.94613333 2.9504 7.86453333 4.4928 14.60266666 4.4928h84.81493334c4.91306667 0 8.5632-1.1232 11.09333333-3.3728 2.53546667-2.2432 3.79733333-5.19253333 3.79733333-8.84586666 0-3.79733333-1.2672-6.88-3.79733333-9.1296-2.52266667-2.24426667-6.176-3.37066667-11.09333333-3.37066667h-72.7392v-43.81013333h64.7328c4.77333333 0 8.42666667-1.12213333 10.67413333-3.37066667 2.2432-2.2496 3.51146667-5.056 3.51146667-8.5664 0-3.51146667-1.12746667-6.31573333-3.51146667-8.42453333-2.38933333-2.10453333-5.9008-3.2256-10.67413333-3.2256h-64.7328V192.75733333h70.34666666v0.0032z m220.88106667 1.12853333c1.5424-6.32106667 2.24426667-10.95466667 2.24426667-13.76533333 0-4.07253333-1.40373333-7.44533333-4.208-10.10773333-2.8096-2.67093333-6.32106667-4.07466667-10.3936-4.07466667-4.06613333 0-7.15733333 0.9824-9.26613334 3.09333333-2.10346667 2.10773333-3.65226667 4.4928-4.49386666 7.1616-0.84053333 2.6656-1.82293333 6.32213333-2.80426667 11.09546667l-20.22613333 90.0096-22.74666667-84.2528c-1.82826667-6.88213333-3.37066667-11.936-4.49386667-14.88746667-1.12213333-2.94506667-3.09013333-5.75466667-6.0352-8.27946666-2.95146667-2.52906667-7.0176-3.79733333-12.2176-3.79733334-5.19466667 0-9.2672 1.26826667-12.35733333 3.65226667-2.94506667 2.38933333-5.19466667 5.33973333-6.45653333 8.7104-1.26826667 3.37173333-2.81066667 8.27946667-4.49386667 14.74133333l-22.60586667 84.11306667-20.22186666-90.0096c-1.40266667-6.88213333-3.2256-12.21653333-5.19466667-15.8688-1.96373333-3.6512-5.75573333-5.46986667-11.5168-5.46986667-4.07146667 0-7.584 1.40266667-10.3936 4.06826667-2.8096 2.6688-4.20693333 6.0352-4.20693333 10.10773333 0 3.09013333 0.70186667 7.7248 2.24426666 13.76533334l25.696 103.76533333c0.7008 3.09653333 1.68853333 6.464 2.66986667 9.97653333 0.98133333 3.65013333 2.24426667 6.74133333 3.792 9.41013334 1.5424 2.66666667 3.51146667 4.6336 6.0352 6.0352 2.53013333 1.4048 5.62133333 2.10453333 9.54666667 2.10453333 4.7744 0 8.56533333-1.26186667 11.5168-3.65333333 2.81066667-2.384 4.9152-5.19466667 6.03626666-8.14293334 1.1264-3.0912 2.66986667-8 4.63253334-15.02186666l25.27573333-92.39786667 24.85546667 92.39786667c1.96373333 7.15733333 3.65226667 12.34986667 4.77333333 15.3024 1.1232 2.9504 3.0912 5.61813333 6.0416 8.00426666 2.80533333 2.3872 6.73706667 3.51146667 11.51573333 3.51146667 5.05386667 0 8.98666667-1.2672 11.65226667-3.65333333a19.67253333 19.67253333 0 0 0 5.89973333-8.56533334c1.1232-3.2256 2.6656-8.42666667 4.352-15.4432l25.55733334-103.632-0.00426667-0.0032z m0 0" p-id="2210"></path></svg>