<?xml version="1.0" standalone="no"?><!DOCTYPE svg PUBLIC "-//W3C//DTD SVG 1.1//EN" "http://www.w3.org/Graphics/SVG/1.1/DTD/svg11.dtd"><svg t="1578746100425" class="icon" viewBox="0 0 1024 1024" version="1.1" xmlns="http://www.w3.org/2000/svg" p-id="17556" xmlns:xlink="http://www.w3.org/1999/xlink" width="128" height="128"><defs><style type="text/css"></style></defs><path d="M806.948511 894.455099V600.215259h35.546894v294.23984h-35.546894z m-21.316798 56.835345v-35.518547l1.105525-0.028347 1.077179-0.08504 1.048832-0.141734 1.048832-0.170081 1.020485-0.255122 0.992138-0.283468 0.992138-0.340161 0.963791-0.368509 0.935445-0.425202 0.907098-0.481895 0.907098-0.510243 0.850404-0.566936 0.850404-0.595283 0.822057-0.651977 0.765364-0.651976 0.765364-0.737017 0.70867-0.737017 0.680323-0.793711 0.651977-0.79371 0.595283-0.850404 0.538589-0.878751 0.538589-0.878751 0.453549-0.935445 0.425202-0.935444 0.396855-0.963792 0.340162-0.963791 0.283468-1.020485 0.226775-1.020485 0.198427-1.020485 0.113387-1.077179 0.085041-1.077178 0.028347-1.077179h35.546894l-0.085041 2.891374-0.226774 2.891374-0.340162 2.834681-0.510242 2.806334-0.651977 2.74964-0.765364 2.692946-0.907097 2.6646-1.020485 2.579559-1.133873 2.522866-1.275606 2.437825-1.360646 2.381132-1.474034 2.324438-1.587421 2.211051-1.700809 2.154357-1.785849 2.04097-1.870889 1.984276-1.955929 1.87089-2.069317 1.785848-2.12601 1.672462-2.239398 1.587421-2.296091 1.474034-2.381132 1.388993-2.466172 1.24726-2.494519 1.162219-2.607906 1.020485-2.636253 0.878751-2.692946 0.79371-2.777987 0.62363-2.777987 0.510243-2.863028 0.368508-2.863027 0.226774-2.919721 0.056694zM238.368287 915.771897h547.263426v35.518547H238.368287v-35.518547z m-56.835345-21.316798h35.518547l0.028347 1.077179 0.085041 1.077178 0.141734 1.077179 0.17008 1.020485 0.255122 1.020485 0.283468 1.020485 0.340161 0.963791 0.368509 0.963792 0.425202 0.935444 0.481896 0.935445 0.510242 0.878751 0.566936 0.878751 0.595283 0.850404 0.651977 0.79371 0.651976 0.793711 0.737017 0.737017 0.737017 0.737017 0.793711 0.651976 0.79371 0.651977 0.850404 0.595283 0.878751 0.566936 0.878751 0.510243 0.935445 0.481895 0.935444 0.425202 0.963792 0.368509 0.963791 0.340161 1.020485 0.283468 1.020485 0.255122 1.020485 0.170081 1.077179 0.141734 1.077178 0.08504 1.077179 0.028347v35.518547l-2.891374-0.056694-2.891374-0.226774-2.834681-0.368508-2.806334-0.510243-2.74964-0.62363-2.692946-0.79371-2.6646-0.878751-2.579559-1.020485-2.522866-1.162219-2.437825-1.24726-2.381132-1.388993-2.324438-1.474034-2.211051-1.587421-2.154357-1.672462-2.04097-1.785848-1.984276-1.87089-1.870889-1.984276-1.785849-2.04097-1.672462-2.154357-1.587421-2.211051-1.474034-2.324438-1.388993-2.381132-1.24726-2.437825-1.162219-2.522866-1.020485-2.579559-0.907097-2.6646-0.765364-2.692946-0.62363-2.74964-0.510242-2.806334-0.368509-2.834681-0.226774-2.891374-0.056694-2.891374z m35.518547-294.23984v294.23984H181.532942V600.215259l17.7451-17.773447 17.773447 17.773447z m-35.518547 0c0-9.807995 7.937106-17.773447 17.7451-17.773447 9.836341 0 17.773447 7.965452 17.773447 17.773447H181.532942z m-120.757391-17.773447h138.502491v35.546894H60.775551v-35.546894z m0 35.546894c-9.807995 0-17.773447-7.965452-17.773447-17.773447s7.965452-17.773447 17.773447-17.773447v35.546894z m-42.180047-28.148378l32.797254-13.634814 0.170081 0.396856 0.198428 0.396855 0.198427 0.368508 0.198428 0.340162 0.198428 0.340162 0.226774 0.311815 0.226775 0.311814 0.226774 0.283468 0.226774 0.283469 0.255122 0.255121 0.226774 0.255121 0.255121 0.226774 0.255122 0.226775 0.283468 0.226774 0.255121 0.198428 0.283468 0.198428 0.283468 0.17008 0.311815 0.198428 0.283468 0.141734 0.311815 0.170081 0.311815 0.141734 0.340161 0.113387 0.340162 0.141734 0.340162 0.113387 0.368508 0.085041 0.368509 0.08504 0.368508 0.085041 0.396855 0.056693 0.396856 0.056694 0.396855 0.028347 0.425202 0.028347h0.453549v35.546894l-1.700808-0.028347-1.700809-0.113387-1.700808-0.141734-1.672462-0.198428-1.672461-0.283468-1.644115-0.340162-1.644115-0.396855-1.615767-0.453549-1.615768-0.510243-1.559075-0.566936-1.559074-0.623629-1.530727-0.680324-1.474034-0.737017-1.474034-0.79371-1.445687-0.822058-1.388994-0.907097-1.388993-0.963792-1.3323-0.992138-1.275606-1.048832-1.275607-1.105525-1.218912-1.133872-1.162219-1.190566-1.133872-1.24726-1.077179-1.275606-1.048832-1.3323-0.992138-1.360646-0.935445-1.388994-0.878751-1.445687-0.850404-1.445687-0.79371-1.502381-0.737017-1.559074-0.680324-1.559074z m9.779648-49.748644l25.20031 25.058576-0.311815 0.311815-0.283468 0.311815-0.255121 0.311815-0.255121 0.340161-0.226775 0.311815-0.226774 0.311815-0.170081 0.340162-0.198427 0.311815-0.170081 0.340161-0.141734 0.311815-0.141734 0.311815-0.113388 0.340162-0.113387 0.311815-0.08504 0.340161-0.085041 0.340162-0.08504 0.311815-0.056694 0.340161-0.056693 0.340162-0.028347 0.340162-0.028347 0.340161v0.708671l0.028347 0.368508 0.028347 0.340162 0.028347 0.368508 0.056693 0.368509 0.085041 0.396855 0.08504 0.368508 0.113387 0.396856 0.113387 0.396855 0.141734 0.396855 0.170081 0.425202-32.797254 13.634814-0.623629-1.587421-0.566936-1.615768-0.510243-1.615768-0.453549-1.615768-0.396855-1.644115-0.311815-1.672461-0.283468-1.644115-0.198428-1.672462-0.141734-1.672461-0.08504-1.672462v-1.672461l0.028347-1.672462 0.113387-1.672461 0.170081-1.644115 0.226774-1.672461 0.283468-1.615768 0.368509-1.644115 0.396855-1.615768 0.481896-1.587421 0.538589-1.587421 0.566936-1.559074 0.651977-1.559075 0.70867-1.50238 0.765364-1.502381 0.822057-1.445687 0.878751-1.445687 0.935444-1.417341 0.963792-1.360646 1.048832-1.360647 1.077178-1.303953 1.133872-1.275606 1.190566-1.218913zM504.799911 111.232865L53.575462 565.15026l-25.20031-25.058576L479.599601 86.202635l25.20031 25.03023z m7.200089-38.523309v35.546894h-0.62363l-0.283468 0.028347h-0.283468l-0.283468 0.028347-0.255121 0.056693-0.255121 0.028347-0.226775 0.056694-0.255121 0.028346-0.226775 0.056694-0.226774 0.056694-0.198428 0.056693-0.198427 0.085041-0.198428 0.056693-0.198428 0.085041-0.226774 0.056693-0.170081 0.085041-0.198427 0.08504-0.198428 0.113387-0.198428 0.085041-0.170081 0.113387-0.198427 0.113387-0.198428 0.141734-0.198427 0.113387-0.198428 0.141735-0.226775 0.17008-0.198427 0.141734-0.226775 0.170081-0.198427 0.198428-0.226775 0.198427-0.226774 0.198428-0.226775 0.226775-25.20031-25.03023 0.793711-0.79371 0.822057-0.765364 0.850404-0.765364 0.850405-0.70867 0.878751-0.737017 0.878751-0.680323 0.907097-0.651977 0.907098-0.651976 0.963791-0.62363 0.935445-0.595283 0.963791-0.595283 0.992139-0.538589 1.020485-0.538589 0.992138-0.481896 1.020485-0.481896 1.048832-0.453549 1.048831-0.425202 1.048832-0.396855 1.077179-0.368508 1.077178-0.311815 1.105526-0.311815 1.077178-0.283468 1.105526-0.255121 1.105525-0.226775 1.105526-0.198428 1.105525-0.17008 1.133872-0.141734 1.105526-0.141734 1.133872-0.085041 1.105525-0.056693 1.133873-0.028347 1.105525-0.028347z m32.400399 13.493079l-25.20031 25.03023-0.226775-0.226775-0.226774-0.198428-0.198428-0.198427-0.226774-0.198428-0.226775-0.170081-0.198427-0.141734-0.198428-0.17008-0.198428-0.141735-0.198427-0.113387-0.198428-0.141734-0.198428-0.113387-0.198427-0.113387-0.198428-0.085041-0.170081-0.113387-0.198427-0.08504-0.198428-0.085041-0.198428-0.056693-0.198427-0.085041-0.198428-0.056693-0.226774-0.085041-0.198428-0.056693-0.226774-0.056694-0.226775-0.056694-0.226774-0.028346-0.255122-0.056694-0.226774-0.028347-0.283468-0.056693-0.255121-0.028347h-0.283468l-0.311815-0.028347h-0.62363V72.709556l1.133872 0.028347 1.105526 0.028347 1.133872 0.056693 1.105525 0.085041 1.133872 0.141734 1.105526 0.141734 1.105525 0.17008 1.133873 0.198428 1.077178 0.226775 1.105526 0.255121 1.105525 0.283468 1.077179 0.311815 1.077178 0.311815 1.077179 0.368508 1.048832 0.396855 1.048831 0.425202 1.048832 0.453549 1.020485 0.481896 1.020485 0.481896 0.992138 0.538589 0.992139 0.538589 0.963791 0.595283 0.963791 0.595283 0.935445 0.62363 0.907098 0.651976 0.935444 0.651977 0.878751 0.70867 0.878751 0.70867 0.850404 0.70867 0.822058 0.765364 0.822057 0.765364 0.793711 0.79371z m426.052486 478.947625L519.200089 111.232865l25.20031-25.03023 451.224449 453.889049-25.171963 25.058576z m34.979957 24.690068l-32.8256-13.634814 0.170081-0.425202 0.141734-0.396855 0.113387-0.396855 0.113387-0.396856 0.08504-0.368508 0.085041-0.396855 0.056693-0.368509 0.056694-0.368508 0.028347-0.340162v-1.077179l-0.028347-0.340161-0.028347-0.340162-0.028347-0.340162-0.08504-0.340161-0.056694-0.311815-0.08504-0.340162-0.113387-0.340161-0.085041-0.311815-0.141734-0.340162-0.141734-0.311815-0.141734-0.340161-0.170081-0.311815-0.17008-0.311815-0.198428-0.340162-0.226774-0.311815-0.226775-0.311815-0.226774-0.340161-0.283468-0.311815-0.283468-0.311815-0.283468-0.311815 25.171963-25.058576 1.190566 1.218913 1.133872 1.275606 1.077178 1.303953 1.048832 1.360647 0.992138 1.360646 0.907098 1.417341 0.878751 1.445687 0.822057 1.445687 0.765364 1.502381 0.70867 1.50238 0.651977 1.559075 0.595283 1.559074 0.538589 1.587421 0.453549 1.587421 0.425202 1.615768 0.340162 1.644115 0.311815 1.615768 0.226774 1.672461 0.170081 1.644115 0.08504 1.672461 0.056694 1.672462-0.028347 1.672461-0.08504 1.672462-0.141734 1.672461-0.198428 1.672462-0.255121 1.644115-0.340162 1.672461-0.368508 1.644115-0.453549 1.615768-0.510243 1.615768-0.566936 1.615768-0.62363 1.587421z m-42.208393 28.148378v-35.546894h0.453549l0.425202-0.028347 0.425202-0.028347 0.396855-0.056694 0.396856-0.056693 0.368508-0.085041 0.368509-0.08504 0.340161-0.085041 0.368509-0.113387 0.311815-0.141734 0.340161-0.113387 0.311815-0.141734 0.311815-0.170081 0.311815-0.141734 0.283468-0.170081 0.283468-0.198427 0.283468-0.198428 0.283468-0.198428 0.255121-0.226774 0.255122-0.226775 0.255121-0.226774 0.255121-0.255121 0.226775-0.255121 0.255121-0.283469 0.226774-0.283468 0.226775-0.311814 0.198427-0.311815 0.226775-0.340162 0.198427-0.340162 0.170081-0.368508 0.198428-0.396855 0.170081-0.396856 32.8256 13.634814-0.70867 1.559074-0.737017 1.530728-0.79371 1.530727-0.822058 1.445687-0.907097 1.445687-0.935445 1.388994-0.992138 1.360646-1.048832 1.3323-1.077179 1.275606-1.133872 1.24726-1.162219 1.190566-1.218912 1.133872-1.24726 1.105525-1.303953 1.048832-1.3323 0.992138-1.360646 0.963792-1.417341 0.878751-1.41734 0.850404-1.474034 0.79371-1.502381 0.737017-1.530727 0.680324-1.530727 0.623629-1.587422 0.566936-1.587421 0.510243-1.615768 0.453549-1.644114 0.396855-1.644115 0.340162-1.672462 0.283468-1.700808 0.198428-1.672461 0.141734-1.700809 0.113387-1.729155 0.028347z m-138.502491-35.546894h138.502491v35.546894h-138.502491l-17.773447-17.773447 17.773447-17.773447z m0 35.546894c-9.807995 0-17.773447-7.965452-17.773447-17.773447s7.965452-17.773447 17.773447-17.773447v35.546894zM476.849961 808.706013c9.807995 0 17.773447 7.965452 17.773447 17.773447s-7.965452 17.773447-17.773447 17.773447v-35.546894z m-41.187908 0h41.187908v35.546894h-41.187908v-35.546894z m-39.798915-4.252021h35.546894v0.226774l0.028347 0.226775 0.028347 0.198427 0.028347 0.198428 0.028346 0.198428 0.056694 0.198427 0.08504 0.170081 0.056694 0.198428 0.08504 0.170081 0.085041 0.198427 0.113387 0.170081 0.113387 0.170081 0.113387 0.170081 0.141734 0.170081 0.141735 0.17008 0.141734 0.170081 0.17008 0.141734 0.170081 0.141734 0.141734 0.113387 0.198428 0.141734 0.170081 0.113388 0.170081 0.08504 0.198427 0.113387 0.170081 0.085041 0.198428 0.056693 0.17008 0.085041 0.198428 0.056693 0.198428 0.028347 0.198427 0.028347 0.198428 0.028347 0.226774 0.028347h0.226775v35.546894l-2.04097-0.056694-2.012623-0.170081-2.012623-0.255121-1.95593-0.340162-1.927583-0.453549-1.899236-0.538589-1.842542-0.62363-1.814196-0.737017-1.757502-0.79371-1.729155-0.878751-1.644114-0.963791-1.615768-1.020485-1.559075-1.105526-1.50238-1.190566-1.445687-1.247259-1.360647-1.303953-1.303953-1.388994-1.24726-1.41734-1.190565-1.502381-1.105526-1.559074-1.020485-1.615768-0.963791-1.644115-0.878751-1.729155-0.793711-1.757502-0.737017-1.814195-0.623629-1.842543-0.53859-1.899235-0.453549-1.927583-0.340161-1.984277-0.255121-1.984276-0.170081-2.012623-0.056694-2.04097z m35.546894-84.927029v84.927029h-35.546894v-84.927029h35.546894z m-35.546894 0c0-9.807995 7.965452-17.7451 17.773447-17.745101s17.773447 7.937106 17.773447 17.745101h-35.546894z m35.546894-123.336951c0 9.807995-7.965452 17.7451-17.773447 17.7451s-17.773447-7.937106-17.773447-17.7451h35.546894z m0-84.927029v84.927029h-35.546894v-84.927029h35.546894z m4.252021-39.798915v35.546894h-0.226775l-0.226774 0.028347-0.198428 0.028347-0.198427 0.028347-0.198428 0.028346-0.198428 0.056694-0.17008 0.08504-0.198428 0.056694-0.170081 0.085041-0.198427 0.113387-0.170081 0.08504-0.170081 0.113387-0.198428 0.141734-0.170081 0.113388-0.141734 0.141734-0.17008 0.141734-0.141734 0.170081-0.141735 0.17008-0.141734 0.170081-0.113387 0.170081-0.113387 0.170081-0.113387 0.170081-0.085041 0.198427-0.08504 0.170081-0.056694 0.198428-0.08504 0.170081-0.056694 0.198427-0.028346 0.198428-0.028347 0.198428-0.028347 0.198427-0.028347 0.226775v0.226774h-35.546894l0.056694-2.04097 0.170081-2.012623 0.255121-1.984277 0.340161-1.984276 0.453549-1.927583 0.53859-1.899236 0.623629-1.842542 0.737017-1.814196 0.793711-1.757501 0.878751-1.729156 0.963791-1.644114 1.020485-1.615768 1.105526-1.559075 1.190565-1.50238 1.24726-1.41734 1.303953-1.388994 1.388993-1.303953 1.417341-1.247259 1.50238-1.190566 1.559075-1.105526 1.615768-1.020485 1.644114-0.963791 1.729155-0.878751 1.757502-0.793711 1.814196-0.737017 1.842542-0.623629 1.899236-0.53859 1.927583-0.453548 1.95593-0.340162 2.012623-0.255121 2.012623-0.170081 2.04097-0.056694z m0 0c9.807995 0 17.7451 7.965452 17.7451 17.773447s-7.937106 17.773447-17.7451 17.773447v-35.546894z m222.522423 35.546894h-222.522423v-35.546894h222.522423v35.546894z m39.798915 4.252021h-35.546894v-0.226774l-0.028347-0.226775-0.028347-0.198427-0.028347-0.198428-0.028347-0.198428-0.056693-0.198427-0.085041-0.170081-0.056693-0.198428-0.085041-0.170081-0.113387-0.198427-0.08504-0.170081-0.113388-0.170081-0.141734-0.170081-0.113387-0.170081-0.141734-0.17008-0.141734-0.170081-0.170081-0.141734-0.170081-0.141734-0.141734-0.113388-0.198427-0.141734-0.170081-0.113387-0.170081-0.08504-0.198428-0.113387-0.17008-0.085041-0.198428-0.056694-0.170081-0.08504-0.198428-0.056694-0.198427-0.028346-0.198428-0.028347-0.198427-0.028347-0.226775-0.028347h-0.226774v-35.546894l2.04097 0.056694 2.012623 0.170081 1.984276 0.255121 1.984277 0.340162 1.927582 0.453548 1.899236 0.53859 1.842543 0.623629 1.814195 0.737017 1.757502 0.793711 1.729155 0.878751 1.644115 0.963791 1.615768 1.020485 1.559074 1.105526 1.502381 1.190566 1.41734 1.247259 1.388994 1.303953 1.303953 1.388994 1.247259 1.41734 1.190566 1.50238 1.105525 1.559075 1.020485 1.615768 0.963792 1.644114 0.878751 1.729156 0.79371 1.757501 0.737017 1.814196 0.62363 1.842542 0.538589 1.899236 0.453549 1.927583 0.340162 1.984276 0.255121 1.984277 0.170081 2.012623 0.056694 2.04097z m-35.546894 293.191009V511.262983h35.546894v293.191009h-35.546894z m35.546894 0c0 9.836341-7.965452 17.773447-17.773447 17.773447s-17.773447-7.937106-17.773447-17.773447h35.546894z m-32.031891-293.786292l-170.676115 25.342044-5.215812-35.150039 170.647768-25.342044 5.244159 35.150039z m32.031891 2.097664h-35.546894v-0.226775l-0.028347-0.255121-0.028347-0.255121-0.028347-0.255121-0.056694-0.226775-0.056693-0.255121-0.056694-0.255121-0.08504-0.226775-0.085041-0.226774-0.08504-0.198428-0.08504-0.198428-0.085041-0.141734-0.08504-0.17008-0.085041-0.113388-0.056693-0.08504-0.028347-0.056694-0.028347-0.028346 0.028347 0.056693 0.08504 0.056694 0.113388 0.08504 0.17008 0.113387 0.226775 0.141734 0.283468 0.141734 0.311815 0.113388 0.396855 0.141734 0.425202 0.113387 0.453549 0.08504 0.481896 0.056694 0.510242 0.028347 0.510243-0.028347 0.481895-0.028347-5.244159-35.150039 2.211051-0.255121 2.182704-0.056693 2.182704 0.08504 2.126011 0.255121 2.097663 0.396855 2.012623 0.53859 1.95593 0.680323 1.842542 0.793711 1.785849 0.878751 1.672462 0.992138 1.587421 1.048832 1.474034 1.133872 1.41734 1.190566 1.303953 1.247259 1.247259 1.303953 1.133873 1.3323 1.077178 1.388993 1.020485 1.417341 0.935445 1.445687 0.850404 1.474034 0.793711 1.50238 0.737016 1.559075 0.680324 1.587421 0.595283 1.587421 0.538589 1.644115 0.453549 1.644114 0.396855 1.672462 0.340162 1.729155 0.255121 1.700808 0.198428 1.757502 0.113387 1.785849 0.056694 1.785849z m-35.546894 297.868231V512.765364h35.546894v297.868231h-35.546894z m3.656737 37.219356l-5.527627-35.093345 0.141734-0.028347 0.141734-0.028347 0.113388-0.028347 0.141734-0.028346 0.113387-0.056694 0.113387-0.028347 0.085041-0.056693 0.113387-0.056694 0.08504-0.028347 0.085041-0.056693 0.08504-0.056694 0.056694-0.056694 0.056693-0.056693 0.056694-0.028347 0.056693-0.056694 0.028347-0.056693 0.056694-0.028347 0.028347-0.056694 0.028346-0.028347 0.028347-0.056693 0.028347-0.028347 0.028347-0.056694 0.028347-0.056693 0.028346-0.056694 0.028347-0.056693v-0.085041l0.028347-0.113387 0.028347-0.113387 0.028347-0.113387 0.028347-0.170081v-0.396856h35.546894l-0.056694 1.785849-0.113387 1.785849-0.198428 1.785849-0.283468 1.757502-0.368508 1.700808-0.425203 1.700808-0.510242 1.672462-0.595283 1.644114-0.651976 1.587422-0.737017 1.559074-0.793711 1.502381-0.850404 1.474033-0.907098 1.417341-0.992138 1.360646-1.020485 1.303953-1.105526 1.24726-1.133872 1.190566-1.162219 1.162219-1.247259 1.077178-1.24726 1.020485-1.303953 0.963792-1.3323 0.907097-1.388993 0.822058-1.388993 0.79371-1.445688 0.708671-1.445687 0.651976-1.474034 0.595283-1.50238 0.538589-1.530728 0.481896-1.559074 0.396855-1.559074 0.368509-1.559075 0.255121z m-175.098217-8.475695l169.57059-26.61765 5.527627 35.093345-169.57059 26.645997-5.527627-35.121692z m-31.890156-2.04097l35.546894-0.141734v0.255121l0.028347 0.226775 0.028347 0.255121 0.028346 0.283468 0.056694 0.255121 0.056694 0.255122 0.056693 0.255121 0.085041 0.226774 0.08504 0.255122 0.113387 0.198427 0.085041 0.198428 0.08504 0.170081 0.085041 0.141734 0.08504 0.141734 0.056694 0.08504 0.056693 0.056694v0.028347l-0.028347-0.056694-0.08504-0.056694-0.141734-0.08504-0.170081-0.141734-0.226774-0.113387-0.283468-0.141734-0.340162-0.170081-0.396855-0.113387-0.453549-0.141734-0.481896-0.085041-0.510242-0.056693h-1.048832l-0.481896 0.056693 5.527627 35.121692-2.211051 0.255121-2.21105 0.085041-2.211051-0.085041-2.154357-0.226774-2.097664-0.396855-2.04097-0.53859-1.95593-0.680323-1.870889-0.793711-1.757502-0.907097-1.700808-0.963792-1.587421-1.077178-1.474034-1.133873-1.41734-1.190565-1.303953-1.24726-1.24726-1.303953-1.162219-1.3323-1.077178-1.388993-0.992139-1.41734-0.935444-1.445688-0.850404-1.50238-0.793711-1.502381-0.737017-1.559074-0.651976-1.559075-0.595283-1.587421-0.53859-1.644114-0.481895-1.644115-0.396856-1.672462-0.340161-1.700808-0.255121-1.729155-0.198428-1.729155-0.113387-1.785849-0.056694-1.757502z m34.441369-299.285572l1.105525 299.143838-35.546894 0.141734-1.077179-299.143838 35.518548-0.141734z m-3.486657-37.191009l5.215812 35.150039-0.113387 0.028347-0.113388 0.028347-0.113387 0.028347-0.113387 0.028346-0.113387 0.028347-0.085041 0.056694-0.113387 0.028347-0.08504 0.056693-0.085041 0.028347-0.08504 0.056694-0.056694 0.056693-0.056693 0.028347-0.056694 0.056694-0.056694 0.056693-0.056693 0.028347-0.028347 0.056694-0.056694 0.028347-0.028346 0.056693-0.028347 0.028347-0.028347 0.056694-0.028347 0.028346-0.028347 0.056694-0.028347 0.056694v0.056693l-0.028346 0.056694-0.028347 0.08504-0.028347 0.085041-0.028347 0.113387-0.028347 0.141734v0.141734l-0.028346 0.198428v0.198427l-35.518548 0.141734 0.028347-1.814195 0.113387-1.785849 0.198428-1.785849 0.283468-1.757502 0.340162-1.729155 0.453549-1.700808 0.510242-1.672462 0.566936-1.644114 0.651977-1.587422 0.737017-1.559074 0.79371-1.530727 0.850404-1.445687 0.935445-1.417341 0.963791-1.388993 1.048832-1.303953 1.077179-1.24726 1.133872-1.218912 1.190566-1.133872 1.247259-1.077179 1.24726-1.048832 1.3323-0.963791 1.3323-0.907098 1.388993-0.822057 1.388993-0.793711 1.445688-0.737017 1.474033-0.651976 1.502381-0.595283 1.502381-0.510243 1.559074-0.481896 1.559074-0.396855 1.587421-0.340161 1.587422-0.283469z m-115.201418 185.784963c6.944967 6.944967 6.944967 18.198649 0 25.143617-6.916621 6.916621-18.170302 6.916621-25.115269 0l25.115269-25.143617z m-28.318458-28.318458l28.318458 28.318458-25.115269 25.143617-28.318459-28.346806 25.11527-25.115269z m-25.11527-25.994021l25.11527 25.143617-0.028347 0.028346h-0.028347v0.028347l-0.028347 0.028347v0.028347l-0.028347 0.028347v0.056693h-0.028346v0.113387l-0.028347 0.028347v0.141734l0.028347 0.056694v0.08504l0.028346 0.028347v0.056694h0.028347v0.056693h0.028347v0.028347l0.028347 0.028347 0.028347 0.028347-25.11527 25.115269-1.275606-1.3323-1.190566-1.388993-1.133872-1.445687-1.020485-1.474034-0.963792-1.530727-0.878751-1.587422-0.765363-1.587421-0.708671-1.615768-0.623629-1.644114-0.53859-1.672462-0.453548-1.700808-0.368509-1.700808-0.283468-1.700809-0.198428-1.700808-0.141734-1.729155-0.028346-1.729155 0.028346-1.729155 0.141734-1.729156 0.198428-1.700808 0.283468-1.729155 0.368509-1.700808 0.453548-1.672462 0.53859-1.672461 0.623629-1.644115 0.708671-1.644115 0.765363-1.587421 0.878751-1.559074 0.963792-1.530728 1.020485-1.474034 1.133872-1.445687 1.190566-1.41734 1.275606-1.3323z m53.433728-3.203189l-28.318458 28.346806-25.11527-25.143617 28.318459-28.318459 25.115269 25.11527z m-25.115269-25.11527c6.944967-6.944967 18.198649-6.944967 25.115269 0 6.944967 6.944967 6.944967 18.198649 0 25.11527l-25.115269-25.11527z m-5.017385 71.632378c-9.807995 0-17.773447-7.937106-17.773447-17.7451s7.965452-17.773447 17.773447-17.773447v35.518547z m94.961798 0h-94.961798v-35.518547h94.961798v35.518547z m0-35.518547c9.807995 0 17.773447 7.965452 17.773447 17.773447s-7.965452 17.7451-17.773447 17.7451v-35.518547z" fill="" p-id="17557"></path></svg>