<?xml version="1.0" standalone="no"?><!DOCTYPE svg PUBLIC "-//W3C//DTD SVG 1.1//EN" "http://www.w3.org/Graphics/SVG/1.1/DTD/svg11.dtd"><svg t="1557815187074" class="icon" style="" viewBox="0 0 1024 1024" version="1.1" xmlns="http://www.w3.org/2000/svg" p-id="3701" xmlns:xlink="http://www.w3.org/1999/xlink" width="200" height="200"><defs><style type="text/css"></style></defs><path d="M512 614.939696c-31.001841 0-56.115428 25.113587-56.115428 56.108204 0 16.624385 7.22124 31.543705 18.697918 41.82467v51.704656c0 20.659465 16.75082 37.406673 37.41751 37.406673 20.65224 0 37.403061-16.75082 37.403061-37.406673V712.876183a55.967319 55.967319 0 0 0 18.719592-41.824671c0-30.994617-25.117199-56.111816-56.122653-56.111816" fill="#272536" p-id="3702"></path><path d="M853.269514 387.895099h-48.760529V292.50176c0-161.562149-130.950449-292.508985-292.508985-292.508985-161.576598 0-292.523435 130.950449-292.523435 292.508985v95.396951H170.719649c-67.317562 0-121.876035 54.562085-121.876035 121.876034v392.338383c0 67.317562 54.562085 121.876035 121.876035 121.876035h682.549865c67.295887 0 121.883259-54.562085 121.883259-121.876035V509.774745c0-67.317562-54.587372-121.879647-121.883259-121.879646zM512 48.746079c134.613449 0 243.762906 109.135007 243.762906 243.755681v95.396951H268.262381V292.50176h-0.0289c0-134.617062 109.149457-243.755681 243.766519-243.755681z m414.399469 853.363437c0 40.397762-32.739418 73.119118-73.129955 73.119118H170.719649c-40.390537 0-73.129956-32.724969-73.129956-73.119118V509.774745c0-40.39415 32.739418-73.126343 73.129956-73.126343h682.549865c40.401374 0 73.129956 32.732194 73.129955 73.126343v392.334771z" fill="#272536" p-id="3703"></path></svg>