<?xml version="1.0" standalone="no"?><!DOCTYPE svg PUBLIC "-//W3C//DTD SVG 1.1//EN" "http://www.w3.org/Graphics/SVG/1.1/DTD/svg11.dtd"><svg t="1568023788147" class="icon" viewBox="0 0 1163 1024" version="1.1" xmlns="http://www.w3.org/2000/svg" p-id="7195" width="36.34375" height="32" xmlns:xlink="http://www.w3.org/1999/xlink"><defs><style type="text/css"></style></defs><path d="M232.727273 46.545455c0-23.272727 18.618182-46.545455 46.545454-46.545455h605.090909c27.927273 0 46.545455 23.272727 46.545455 46.545455v372.363636c0 23.272727-18.618182 46.545455-46.545455 46.545454h-605.090909c-27.927273 0-46.545455-23.272727-46.545454-46.545454v-372.363636z m46.545454 23.272727v325.818182c0 13.963636 9.309091 23.272727 23.272728 23.272727h558.545454c13.963636 0 23.272727-9.309091 23.272727-23.272727v-325.818182c0-13.963636-9.309091-23.272727-23.272727-23.272727h-558.545454c-13.963636 0-23.272727 9.309091-23.272728 23.272727z m139.636364 674.909091c0-27.927273 18.618182-46.545455 46.545454-46.545455h232.727273c27.927273 0 46.545455 18.618182 46.545455 46.545455v232.727272c0 27.927273-18.618182 46.545455-46.545455 46.545455h-232.727273c-27.927273 0-46.545455-18.618182-46.545454-46.545455v-232.727272z m46.545454 23.272727v186.181818c0 13.963636 9.309091 23.272727 23.272728 23.272727h186.181818c13.963636 0 23.272727-9.309091 23.272727-23.272727v-186.181818c0-13.963636-9.309091-23.272727-23.272727-23.272727h-186.181818c-13.963636 0-23.272727 9.309091-23.272728 23.272727z m372.363637-23.272727c0-27.927273 18.618182-46.545455 46.545454-46.545455h232.727273c27.927273 0 46.545455 18.618182 46.545455 46.545455v232.727272c0 27.927273-18.618182 46.545455-46.545455 46.545455h-232.727273c-27.927273 0-46.545455-18.618182-46.545454-46.545455v-232.727272z m46.545454 23.272727v186.181818c0 13.963636 9.309091 23.272727 23.272728 23.272727h186.181818c13.963636 0 23.272727-9.309091 23.272727-23.272727v-186.181818c0-13.963636-9.309091-23.272727-23.272727-23.272727h-186.181818c-13.963636 0-23.272727 9.309091-23.272728 23.272727z m-325.818181-209.454545v-93.09091h46.545454v93.09091h372.363636c23.272727 0 46.545455 18.618182 46.545455 46.545454v93.090909h-46.545455v-69.818182c0-13.963636-9.309091-23.272727-23.272727-23.272727h-349.090909v93.090909h-46.545454v-93.090909h-349.09091c-13.963636 0-23.272727 9.309091-23.272727 23.272727v69.818182h93.090909c27.927273 0 46.545455 18.618182 46.545455 46.545455v232.727272c0 27.927273-18.618182 46.545455-46.545455 46.545455h-232.727272c-27.927273 0-46.545455-18.618182-46.545455-46.545455v-232.727272c0-27.927273 18.618182-46.545455 46.545455-46.545455h93.090909v-93.090909c0-27.927273 23.272727-46.545455 46.545454-46.545454h372.363637z m-512 209.454545v186.181818c0 13.963636 9.309091 23.272727 23.272727 23.272727h186.181818c13.963636 0 23.272727-9.309091 23.272727-23.272727v-186.181818c0-13.963636-9.309091-23.272727-23.272727-23.272727h-186.181818c-13.963636 0-23.272727 9.309091-23.272727 23.272727z m325.818181-558.545455c0-13.963636 9.309091-23.272727 23.272728-23.272727h139.636363c13.963636 0 23.272727 9.309091 23.272728 23.272727s-9.309091 23.272727-23.272728 23.272728h-139.636363c-13.963636 0-23.272727-9.309091-23.272728-23.272728z m232.727273 0c0-13.963636 9.309091-23.272727 23.272727-23.272727h139.636364c13.963636 0 23.272727 9.309091 23.272727 23.272727s-9.309091 23.272727-23.272727 23.272728h-139.636364c-13.963636 0-23.272727-9.309091-23.272727-23.272728z" p-id="7196"></path></svg>