<?xml version="1.0" standalone="no"?><!DOCTYPE svg PUBLIC "-//W3C//DTD SVG 1.1//EN" "http://www.w3.org/Graphics/SVG/1.1/DTD/svg11.dtd"><svg t="1558756648919" class="icon" style="" viewBox="0 0 1024 1024" version="1.1" xmlns="http://www.w3.org/2000/svg" p-id="2032" xmlns:xlink="http://www.w3.org/1999/xlink" width="200" height="200"><defs><style type="text/css"></style></defs><path d="M11.398887 653.536178h60.794063v51.294991H11.398887z" p-id="2033"></path><path d="M695.332096 322.96846H218.478664c-24.697588 0-39.896104 13.298701-39.896104 34.196661 0 18.998145 15.198516 30.397032 39.896104 30.397031H455.955473l237.476809 1.899815c24.697588-1.899814 43.695733-15.198516 43.695733-34.196661-5.699443-18.998145-17.09833-32.296846-41.795919-32.296846z m-172.883116 381.862709h79.792207l64.593692 1.899814c43.695733-1.899814 60.794063-15.198516 60.794063-34.19666 0-20.897959-13.298701-34.19666-39.896103-34.196661h-165.283859c-24.697588 0-39.896104 13.298701-39.896104 34.196661 3.799629 20.897959 17.09833 32.296846 39.896104 32.296846z m0-155.784787h79.792207l64.593692 1.899815c43.695733-1.899814 60.794063-15.198516 60.794063-34.196661 0-20.897959-13.298701-34.19666-39.896103-34.19666h-165.283859c-24.697588 0-39.896104 13.298701-39.896104 34.19666 3.799629 20.897959 17.09833 32.296846 39.896104 32.296846z m170.983302 239.376624h-165.283859c-24.697588 0-39.896104 13.298701-39.896104 34.19666 0 18.998145 15.198516 30.397032 39.896104 30.397032H626.938776l64.593692 1.899814c24.697588-1.899814 43.695733-15.198516 43.695732-34.19666-5.699443-18.998145-17.09833-32.296846-41.795918-32.296846z" p-id="2034"></path><path d="M799.821892 104.489796h-104.489796v-28.497217c0-37.996289-30.397032-66.493506-68.39332-66.493507H284.972171c-39.896104 0-68.393321 28.497217-68.393321 66.493507v30.397031H113.988868C56.994434 106.38961 9.499072 153.884972 9.499072 210.879406v702.931355c0 56.994434 47.495362 104.489796 104.489796 104.489796h685.833024c56.994434 0 104.489796-47.495362 104.489796-104.489796V208.979592c1.899814-56.994434-45.595547-104.489796-104.489796-104.489796z m-512.949907-28.497217h341.966605v110.189239h-341.966605v-110.189239z m550.946197 839.717996c0 18.998145-15.198516 36.096475-32.296846 36.096475H112.089054c-18.998145 0-36.096475-22.797774-36.096475-39.896104V210.879406c0-18.998145 20.897959-37.996289 37.996289-37.996289h104.489796v32.296846c0 37.996289 30.397032 47.495362 68.393321 47.495362h341.966605c39.896104 0 68.393321-9.499072 68.393321-47.495362V170.983302h104.489796c18.998145 0 36.096475 20.897959 36.096475 37.99629v706.730983z" p-id="2035"></path><path d="M435.057514 718.12987h-102.589982v-28.497217h102.589982c15.198516 0 24.697588-9.499072 24.697588-24.697588s-13.298701-24.697588-24.697588-24.697588h-64.593692l74.092764-132.987013c5.699443-13.298701 1.899814-28.497217-9.499072-37.99629-13.298701-5.699443-28.497217-1.899814-37.99629 9.499073l-91.191094 157.684601h-3.799629L208.979592 478.753247c-5.699443-13.298701-22.797774-17.09833-37.99629-9.499073-13.298701 5.699443-17.09833 22.797774-9.499072 37.99629l74.092764 132.987013H169.083488c-17.09833 0-24.697588 9.499072-24.697588 24.697588s7.599258 24.697588 24.697588 24.697588h108.289425v28.497217H170.983302c-15.198516 0-24.697588 9.499072-24.697588 24.697588s13.298701 24.697588 24.697588 24.697588h104.489796V834.018553c0 15.198516 9.499072 26.597403 24.697588 26.597402s24.697588-13.298701 24.697589-26.597402v-64.593692h102.589981c15.198516 0 24.697588-9.499072 24.697588-24.697588 9.499072-13.298701-3.799629-26.597403-17.09833-26.597403z" p-id="2036"></path></svg>