<?xml version="1.0" standalone="no"?><!DOCTYPE svg PUBLIC "-//W3C//DTD SVG 1.1//EN" "http://www.w3.org/Graphics/SVG/1.1/DTD/svg11.dtd"><svg t="1567946404502" class="icon" viewBox="0 0 1027 1024" version="1.1" xmlns="http://www.w3.org/2000/svg" p-id="1443" width="32.09375" height="32" xmlns:xlink="http://www.w3.org/1999/xlink"><defs><style type="text/css"></style></defs><path d="M18.65024 552.32L483.29024 768a64 64 0 0 0 28.8 6.4 58.88 58.88 0 0 0 28.16-6.4l465.28-218.24a32 32 0 1 0-26.88-57.6L512.09024 712.96 45.53024 494.72a32 32 0 0 0-26.88 57.6z" p-id="1444"></path><path d="M978.65024 739.84L512.09024 960 45.53024 739.84a31.36 31.36 0 0 0-42.24 15.36 31.36 31.36 0 0 0 15.36 42.24l464.64 218.24A64 64 0 0 0 512.09024 1024a59.52 59.52 0 0 0 28.16-7.04l465.28-218.24a32 32 0 0 0-26.88-57.6zM28.25024 312.32l462.72 217.6a51.84 51.84 0 0 0 42.24 0l462.72-217.6a48.64 48.64 0 0 0 0-88.32L533.21024 6.4a48.64 48.64 0 0 0-42.24 0L28.25024 224a48.64 48.64 0 0 0 0 88.32zM512.09024 67.2l428.16 200.96L512.09024 469.12 83.93024 268.16z" p-id="1445"></path></svg>