<?xml version="1.0" standalone="no"?><!DOCTYPE svg PUBLIC "-//W3C//DTD SVG 1.1//EN" "http://www.w3.org/Graphics/SVG/1.1/DTD/svg11.dtd"><svg t="1574141869170" class="icon" viewBox="0 0 1024 1024" version="1.1" xmlns="http://www.w3.org/2000/svg" p-id="1925" xmlns:xlink="http://www.w3.org/1999/xlink" width="48" height="48"><defs><style type="text/css"></style></defs><path d="M267.776 63.488c-11.264 0-19.968 8.704-19.968 19.968v856.576c0 11.264 8.704 19.968 19.968 19.968h83.968c11.264 0 19.968-8.704 19.968-19.968V83.456c0-11.264-8.704-19.968-19.968-19.968H267.776z m0-63.488h83.968c46.592 0 83.968 37.376 83.968 83.456v856.576c0 46.592-37.376 83.456-83.968 83.456H267.776c-46.592 0-83.968-37.376-83.968-83.456V83.456c0-46.08 37.888-83.456 83.968-83.456z" p-id="1926"></path><path d="M220.16 912.384H83.968c-46.592 0-83.968-37.376-83.968-83.968V199.68c0-46.592 37.376-83.968 83.968-83.968H220.16V179.2H108.032c-24.576 0-44.032 19.456-44.032 44.032v581.12c0 24.576 19.456 44.032 44.032 44.032H220.16v64z m195.584 0v-63.488h500.224c24.576 0 44.032-19.456 44.032-44.032V223.232c0-24.576-19.456-44.032-44.032-44.032H415.744V115.712h523.776c46.592 0 83.968 37.376 83.968 83.968v628.736c0 46.592-37.376 83.968-83.968 83.968H415.744z" p-id="1927"></path><path d="M640 398.336h116.224V338.944H640v59.392z m-7.68-123.392h131.072c19.456 0 26.624 2.048 33.792 6.144 7.168 4.096 12.8 9.728 16.896 16.384 4.096 7.168 6.144 14.336 6.144 33.792v74.752c0 19.456-2.048 26.624-6.144 33.792-4.096 7.168-9.728 12.8-16.896 16.384-7.168 4.096-14.336 6.144-33.792 6.144h-131.072c-19.456 0-26.624-2.048-33.792-6.144-7.168-4.096-12.8-9.728-16.896-16.384-4.096-7.168-6.144-14.336-6.144-33.792V331.264c0-19.456 2.048-26.624 6.144-33.792 4.096-7.168 9.728-12.8 16.896-16.384 7.168-3.584 14.336-6.144 33.792-6.144zM595.968 521.216h211.968c8.704 0 15.872 7.168 15.872 15.872v31.744c0 8.704-7.168 15.872-15.872 15.872h-211.968c-8.704 0-15.872-7.168-15.872-15.872V537.6c0-9.216 7.168-16.384 15.872-16.384z m0 99.84h211.968c8.704 0 15.872 7.168 15.872 15.872v31.744c0 8.704-7.168 15.872-15.872 15.872h-211.968c-8.704 0-15.872-7.168-15.872-15.872v-31.744c0-8.704 7.168-15.872 15.872-15.872z" p-id="1928"></path></svg>