<?xml version="1.0" standalone="no"?><!DOCTYPE svg PUBLIC "-//W3C//DTD SVG 1.1//EN" "http://www.w3.org/Graphics/SVG/1.1/DTD/svg11.dtd"><svg t="1557663662951" class="icon" style="" viewBox="0 0 1024 1024" version="1.1" xmlns="http://www.w3.org/2000/svg" p-id="2263" xmlns:xlink="http://www.w3.org/1999/xlink" width="200" height="200"><defs><style type="text/css"></style></defs><path d="M914.773333 317.866667c-11.434667 9.728-304.64 260.693333-304.64 260.693333s-17.408 17.024-42.154666 1.664c-31.786667-19.754667-161.536-136.746667-161.536-136.746667s-19.328-5.674667-29.013334 2.261334l-273.664 224.426666s-17.664 15.786667-17.664 31.573334v154.922666c0 1.621333 11.946667 32.213333 34.005334 32.213334H917.333333s20.522667-5.376 20.522667-32.213334V322.005333s-11.690667-13.909333-23.168-4.181333z m-30.421333 530.005333l-733.866667 1.024c-16.896 0-26.026667-23.381333-26.026666-24.618667v-114.133333c0-12.074667 13.525333-24.106667 13.525333-24.106667s235.136-185.429333 242.56-191.488c7.381333-6.101333 22.186667-1.749333 22.186667-1.749333s149.504 120.021333 172.373333 137.216a24.32 24.32 0 0 0 32.170667-1.194667s267.392-228.266667 276.053333-235.776c8.789333-7.424 17.749333 3.2 17.749333 3.2s-1.024 406.528-1.024 427.008c0 20.48-15.701333 24.618667-15.701333 24.618667zM770.816 208.64s135.125333-36.309333 138.666667-36.821333c24.064-2.986667 16.896 5.802667 16.896 5.802666s-301.994667 258.986667-322.048 276.053334c-19.968 17.066667-35.242667-3.797333-35.242667-3.797334L394.325333 301.994667l-285.610666 234.197333c-14.976 12.288-22.613333-5.418667-22.613334-5.418667v-27.648l94.72-77.653333L372.48 268.373333c20.266667-16.64 42.24-0.768 42.24-0.768l145.664 123.349334c27.733333 24.746667 47.957333 6.016 47.957333 6.016l178.773334-149.674667c-4.906667-5.333333-9.813333-10.666667-14.762667-15.914667-18.048-17.066667-1.536-22.656-1.536-22.656z" p-id="2264"></path></svg>