<?xml version="1.0" standalone="no"?><!DOCTYPE svg PUBLIC "-//W3C//DTD SVG 1.1//EN" "http://www.w3.org/Graphics/SVG/1.1/DTD/svg11.dtd"><svg t="1569415483931" class="icon" viewBox="0 0 1024 1024" version="1.1" xmlns="http://www.w3.org/2000/svg" p-id="2652" xmlns:xlink="http://www.w3.org/1999/xlink" width="48" height="48"><defs><style type="text/css"></style></defs><path d="M910.6 115.2l-2.1-17.8-17.6-3.1c-21.3-3.2-42.9-4.7-64.5-4.4-58.9-0.7-117.2 11.1-171.2 34.5-47.4 21.9-88.9 73.2-124.4 152.4-5.3 12.2-10.3 24.4-14.8 36.8-6.8-22.9-16.1-45-27.6-66-19.6-36.2-47.7-67.2-81.8-90.3-63.1-42.7-137.6-65.8-213.8-66.1-21.4-0.3-42.8 1.9-63.7 6.5l-16.5 4.1-1.6 16.9c-2.3 35-0.3 70 5.9 104.5 5.3 32.2 15 63.5 28.6 93.1 15.6 34.1 38.3 64.4 66.6 88.9 36.5 32.1 78.5 57.2 124.1 74.1 33.3 11.9 68.4 18 103.8 18.1 20.6-0.4 41.1-2.1 61.5-5V561H264.2v289.2c0 44.4 36 80.3 80.3 80.3H717c44.4 0 80.3-36 80.3-80.3V560.1h-252V421.2c28.9 5.2 58.1 7.8 87.5 7.9 92.6 0 164.1-27.7 212.6-82.6 81.3-92 65.9-225.6 65.2-231.3zM746 851.1c-0.2 17.6-14.5 31.7-32 31.7H340.3c-17.6 0-31.9-14.2-32-31.7V604.6H746v246.5zM439.3 448.4c-67.9 0-133.4-26.8-196-79.9-22.8-19.9-41.2-44.4-53.8-71.9-11.8-25.6-20.2-52.6-24.9-80.3-4.3-24.5-6.4-49.3-6.2-74.1 11.4-1.4 22.9-2.1 34.4-2.1 66.5 0.2 131.5 20.2 186.6 57.4 27.6 18.7 50.3 43.8 66.3 73.1 14.7 27 25.3 56.1 31.4 86.3 5.9 28.5 8.9 57.5 8.9 86.6-15.4 3-31 4.4-46.7 4.4v0.5zM809 314.9c-38.8 44.5-98.1 66.1-176.3 66.1-28.9-0.2-57.8-2.8-86.3-7.7 8-26.3 17.5-52.2 28.6-77.4 29.7-66.9 64.3-111 100.2-127.5 47.7-20.4 99.2-30.5 151.1-29.7 14.8 0 27.9 0.7 37.4 1.6 0.7 36.2-3.9 117.6-54.7 174.9v-0.3z m0 0" p-id="2653"></path><path d="M308.1 649.1h444.7v44.5H308.1z" p-id="2654"></path></svg>