<?xml version="1.0" standalone="no"?><!DOCTYPE svg PUBLIC "-//W3C//DTD SVG 1.1//EN" "http://www.w3.org/Graphics/SVG/1.1/DTD/svg11.dtd"><svg t="1563957933876" class="icon" viewBox="0 0 1024 1024" version="1.1" xmlns="http://www.w3.org/2000/svg" p-id="1914" xmlns:xlink="http://www.w3.org/1999/xlink" width="200" height="200"><defs><style type="text/css"></style></defs><path d="M903.65 252.771c-1.911-0.795-4.028-1.501-6.337-1.897-142.882-27.973-259.712-95.804-374.642-182.82-7.239-5.394-21.615-5.697-28.754-0.2-52.585 40.159-106.782 79.319-164.5 111.787-63.243 35.566-140.562 52.252-210.235 70.534-18.606 4.898-23.336 22.279-18.51 36.461 5.835 131.673 27.449 269.939 82.754 389.819 58.317 126.679 195.867 221.488 318.535 279.233 4.22 1.997 8.444 2.898 12.468 2.995 5.126 0.602 10.654-0.203 16.389-2.995 122.865-60.045 248.955-154.644 311.189-279.127 59.222-118.689 77.828-265.147 83.057-396.714 0.604-15.888-9.551-24.876-21.414-27.076zM792.645 647.589c-51.48 111.89-167.918 196.407-276.607 251.66C407.449 845.8 296.54 766.474 238.429 659.279 181.517 554.38 164.023 418.81 158.191 299.03c61.632-16.389 123.371-33.866 181.787-59.542 60.331-26.575 116.035-68.634 168.717-109.092 110.104 79.322 223.419 143.753 358.153 173.026-6.334 116.29-25.638 238.972-74.203 344.167zM355.063 472.056c-26.045-26.172-66.362 14.389-40.324 40.465l136.448 137.068c0.702 0.695 1.305 1.294 2.01 1.893 10.052 10.392 26.843 14.186 40.017 1.002 81.439-81.818 162.882-163.639 244.428-245.364 25.945-26.172-14.372-66.63-40.42-40.561-74.503 74.93-149.112 149.76-223.615 224.583-39.514-39.66-79.033-79.32-118.544-119.086z" p-id="1915"></path></svg>