<?xml version="1.0" standalone="no"?><!DOCTYPE svg PUBLIC "-//W3C//DTD SVG 1.1//EN" "http://www.w3.org/Graphics/SVG/1.1/DTD/svg11.dtd"><svg t="1559015760588" class="icon" style="" viewBox="0 0 1026 1024" version="1.1" xmlns="http://www.w3.org/2000/svg" p-id="3472" xmlns:xlink="http://www.w3.org/1999/xlink" width="200.390625" height="200"><defs><style type="text/css"></style></defs><path d="M1013.12 565.76c-16-22.4-52.48-41.6-128 5.12a43.52 43.52 0 0 0-46.08-53.12 103.68 103.68 0 0 0-79.36 32.64c-33.92-48-69.12-42.24-136.96 0-26.24 17.28-48.64 32-64 42.24l-11.52 7.04a98.56 98.56 0 0 0 21.12 0c95.36 0 171.52 0 171.52 88.96 0 68.48-74.24 87.68-113.28 88.96H448A242.56 242.56 0 0 1 303.36 704a533.12 533.12 0 0 0 149.12 34.56l160 6.4s71.68 0 73.6-49.28-28.16-49.28-119.04-50.56a372.48 372.48 0 0 1-144.64-38.4s-72.96-58.88-95.36-73.6a164.48 164.48 0 0 0-187.52-30.08c-34.56 14.72-103.04 32-120.96 64a220.16 220.16 0 0 0 0 170.24 169.6 169.6 0 0 0 40.32 67.2 81.92 81.92 0 0 0 82.56 10.88 94.08 94.08 0 0 1 87.04 8.96c41.6 23.04 169.6 94.08 201.6 110.72a217.6 217.6 0 0 0 227.2-23.68 2886.4 2886.4 0 0 0 320-229.12c48.64-43.52 60.16-89.6 39.04-119.04z m0 0" p-id="3473" fill="#e0620d"></path><path d="M489.6 64a231.68 231.68 0 1 0 231.68 230.4A231.68 231.68 0 0 0 489.6 64zM576 302.08H512v23.68h45.44a23.68 23.68 0 1 1 0 47.36H512v36.48a23.68 23.68 0 0 1-47.36 0v-36.48h-46.08a23.68 23.68 0 1 1 0-47.36h47.36v-23.68h-64a23.68 23.68 0 1 1 0-47.36h27.52l-40.96-43.52a23.68 23.68 0 0 1 33.28-33.28l67.84 67.2 67.84-67.84a23.68 23.68 0 0 1 33.28 33.28L546.56 256H576a23.68 23.68 0 1 1 0 47.36z m0 0" p-id="3474" fill="#e0620d"></path></svg>