<?xml version="1.0" standalone="no"?><!DOCTYPE svg PUBLIC "-//W3C//DTD SVG 1.1//EN" "http://www.w3.org/Graphics/SVG/1.1/DTD/svg11.dtd"><svg t="1557814995849" class="icon" style="" viewBox="0 0 1235 1024" version="1.1" xmlns="http://www.w3.org/2000/svg" p-id="2814" xmlns:xlink="http://www.w3.org/1999/xlink" width="241.2109375" height="200"><defs><style type="text/css"></style></defs><path d="M431.916138 790.739862a39.441655 39.441655 0 0 0-16.560552 9.957517 40.818759 40.818759 0 0 0 0 57.591173l15.28938 15.254069 138.840275 138.593103a40.748138 40.748138 0 0 0 28.848552 11.864276h3.531035a40.642207 40.642207 0 0 0 25.388138-69.278897l-25.388138-25.352827-55.755035-55.684414-72.986483-72.845241a39.90069 39.90069 0 0 0-16.560551-9.957518h-24.717242zM120.761379 0A121.008552 121.008552 0 0 0 0 120.549517v632.443586a121.008552 121.008552 0 0 0 120.761379 120.549518h416.873931c4.625655 0 5.720276-2.648276 2.471724-5.896828l-67.089655-67.089655a41.454345 41.454345 0 0 0-8.898207-6.708966 39.229793 39.229793 0 0 0-16.030896-3.248551H120.761379a38.241103 38.241103 0 0 1-37.746758-37.746759V120.549517A38.205793 38.205793 0 0 1 120.761379 82.838069h994.339311a38.241103 38.241103 0 0 1 37.782069 37.711448v632.443586a38.276414 38.276414 0 0 1-37.782069 37.746759H755.641379a39.512276 39.512276 0 0 0-16.066207 3.248552 42.125241 42.125241 0 0 0-8.862896 6.708965l-72.986483 72.845242-55.755034 55.684413-25.388138 25.352828a40.642207 40.642207 0 0 0 25.388138 69.278897h3.531034a40.748138 40.748138 0 0 0 28.848552-11.864276l132.908138-132.696276a23.340138 23.340138 0 0 1 14.300689-5.896828h333.824a121.008552 121.008552 0 0 0 120.76138-120.549517V120.549517A121.008552 121.008552 0 0 0 1115.10069 0H120.761379z m169.277793 446.181517a65.218207 65.218207 0 0 0 130.401104 0 65.218207 65.218207 0 0 0-130.401104 0zM815.668966 448.441379a65.253517 65.253517 0 1 0 65.218206-62.464A63.876414 63.876414 0 0 0 815.668966 448.441379z m-263.062069 1.765518a65.218207 65.218207 0 1 0 65.218206-65.112276 65.147586 65.147586 0 0 0-65.218206 65.112276z m0 0" p-id="2815"></path></svg>