<?xml version="1.0" standalone="no"?><!DOCTYPE svg PUBLIC "-//W3C//DTD SVG 1.1//EN" "http://www.w3.org/Graphics/SVG/1.1/DTD/svg11.dtd"><svg t="1558669659975" class="icon" style="" viewBox="0 0 1024 1024" version="1.1" xmlns="http://www.w3.org/2000/svg" p-id="6517" xmlns:xlink="http://www.w3.org/1999/xlink" width="200" height="200"><defs><style type="text/css"></style></defs><path d="M162.658102 272.13805l409.336806 0c26.591635 0 48.157813-21.548782 48.157813-48.128137l0-48.128137c0-26.579355-21.565155-48.130184-48.157813-48.130184L162.658102 127.751592c-26.594705 0-48.157813 21.550829-48.157813 48.130184l0 48.128137C114.500289 250.589268 136.062374 272.13805 162.658102 272.13805zM114.500289 560.913013l0 48.128137c0 26.578332 21.562085 48.128137 48.157813 48.128137l264.865413 0c0-2.214435 0.033769-4.420683 0.083911-6.623861 0.01228-0.542352 0.025583-1.085728 0.040932-1.627057 0.061398-2.185782 0.13917-4.366448 0.248663-6.538927 0.00614-0.124843 0.01535-0.248663 0.021489-0.373507 0.106424-2.068102 0.2415-4.128017 0.391926-6.184863 0.039909-0.546446 0.080841-1.093914 0.12382-1.641383 0.168846-2.134617 0.353041-4.26514 0.567935-6.386454 0.024559-0.23843 0.053212-0.476861 0.077771-0.715291 0.199545-1.921769 0.420579-3.836375 0.657986-5.745864 0.070608-0.571005 0.141216-1.140986 0.214894-1.710968 0.26913-2.068102 0.553609-4.129041 0.865717-6.182816 0.054235-0.357134 0.115634-0.710175 0.170892-1.066285 0.276293-1.769296 0.568958-3.533476 0.876973-5.29254 0.105401-0.600681 0.209778-1.200338 0.318248-1.799996 0.36225-1.991354 0.73985-3.978614 1.14201-5.955642 0.095167-0.466628 0.197498-0.931209 0.295735-1.397836 0.337691-1.61887 0.689708-3.232624 1.055029-4.841262 0.144286-0.636496 0.287549-1.272993 0.435928-1.907443 0.448208-1.911536 0.910743-3.815909 1.39579-5.713119 0.144286-0.566912 0.297782-1.12973 0.446162-1.693572 0.38681-1.473561 0.784876-2.944052 1.194198-4.41045 0.189312-0.676405 0.376577-1.353834 0.569982-2.028193 0.524956-1.825578 1.064238-3.645017 1.623987-5.455245 0.202615-0.655939 0.414439-1.306762 0.621147-1.960655 0.423649-1.336438 0.855484-2.666736 1.298576-3.993964 0.239454-0.719384 0.476861-1.438769 0.721431-2.155083 0.595564-1.739621 1.204431-3.472078 1.831718-5.196349 0.264013-0.728594 0.538259-1.451048 0.808412-2.176572 0.451278-1.211595 0.910743-2.417049 1.37737-3.620457 0.293689-0.7552 0.583285-1.512447 0.883113-2.263553 0.661056-1.658779 1.335415-3.309372 2.025123-4.952802 0.327458-0.780783 0.664126-1.556449 0.998747-2.333138 0.474814-1.104147 0.956791-2.203178 1.444908-3.300162 0.348947-0.783853 0.693802-1.567705 1.048889-2.346441 0.721431-1.583055 1.458211-3.1569 2.207271-4.723581 0.388856-0.814552 0.786922-1.622964 1.183965-2.433422 0.499373-1.019213 1.003863-2.035356 1.515516-3.047406 0.400113-0.793062 0.796132-1.587148 1.203408-2.376117 0.782829-1.517563 1.581008-3.02694 2.390443-4.52813 0.445138-0.824785 0.896416-1.644453 1.348718-2.465145 0.530073-0.960885 1.066285-1.917676 1.606591-2.87242 0.444115-0.783853 0.883113-1.568728 1.333368-2.347464l0 0L162.658102 512.783853C136.062374 512.782829 114.500289 534.334681 114.500289 560.913013zM501.124813 464.654692c1.209548-1.349741 2.432399-2.686179 3.665483-4.012384 0.128937-0.138146 0.257873-0.277316 0.38681-0.414439 1.224898-1.312902 2.460028-2.614547 3.709485-3.903913 0.045025-0.046049 0.091074-0.093121 0.1361-0.13917 5.130857-5.287423 10.461259-10.377348 15.97995-15.261589 0.246617-0.218988 0.491187-0.438998 0.73985-0.655939 1.194198-1.049912 2.39863-2.089591 3.610224-3.119037 0.349971-0.297782 0.701988-0.594541 1.052982-0.890276 1.197268-1.007957 2.399653-2.009773 3.612271-2.99931 0.292666-0.23843 0.588401-0.472767 0.88209-0.710175 3.903913-3.155876 7.892761-6.212492 11.960403-9.165754 0.416486-0.302899 0.830925-0.60989 1.249457-0.910743 1.115404-0.800225 2.238994-1.587148 3.365654-2.371 0.604774-0.420579 1.208525-0.841158 1.815345-1.257643 1.082658-0.740874 2.169409-1.475608 3.2623-2.202155 0.656963-0.436952 1.315972-0.868787 1.977028-1.300622 1.087774-0.711198 2.176572-1.421372 3.273557-2.117221 0.630357-0.400113 1.267876-0.791016 1.901303-1.186012 2.735297-1.705851 5.493108-3.377934 8.28878-4.993734l0-38.645159c0-26.579355-21.562085-48.12916-48.15986-48.12916L114.500289 320.269257c-26.594705 0-48.157813 21.549805-48.157813 48.12916l0 48.12916c0 26.578332 21.563108 48.128137 48.157813 48.128137L501.124813 464.655715zM716.4663 416.526555c-132.974547 0-240.787018 107.736746-240.787018 240.643756 0 132.895753 107.812471 240.644779 240.787018 240.644779 132.972501 0 240.788042-107.749026 240.788042-240.644779C957.254342 524.263301 849.439824 416.526555 716.4663 416.526555zM812.779879 705.301518c13.30912 0 24.079418 10.783601 24.079418 24.064069 0 13.277398-10.770298 24.064069-24.079418 24.064069l-72.234161 0 0 50.54928c0 11.93789-10.771321 21.642926-24.078395 21.642926-13.310144 0-24.079418-9.705036-24.079418-21.642926l0-50.54928-72.235185 0c-13.310144 0-24.079418-10.786671-24.079418-24.064069 0-13.280468 10.769274-24.064069 24.079418-24.064069l72.235185 0 0-48.131207-72.235185 0c-13.310144 0-24.079418-10.784624-24.079418-24.065092 0-13.277398 10.769274-24.064069 24.079418-24.064069l49.41955 0-46.174646-86.211501c-5.879917-10.939143-2.399653-24.934902 7.759731-31.243585 10.157337-6.320962 23.136953-2.572592 28.992311 8.365528l53.048193 99.055017c1.700735 3.175319 2.591011 6.607488 2.78237 10.035564l0.222057 0c0.194428-3.428076 1.100054-6.860245 2.828418-10.035564l53.893444-99.055017c5.949502-10.93812 19.11843-14.686491 29.440519-8.365528 10.29753 6.309706 13.826913 20.304442 7.876388 31.243585l-46.889937 86.211501 49.430806 0c13.30912 0 24.079418 10.786671 24.079418 24.064069 0 13.280468-10.770298 24.065092-24.079418 24.065092l-72.234161 0 0 48.131207L812.779879 705.301518zM138.578684 705.301518c-26.594705 0-48.158836 21.548782-48.158836 48.127114l0 48.127114c0 26.580379 21.564132 48.130184 48.158836 48.130184l362.54306 0c-35.613102-39.760562-60.355623-89.437985-69.581752-144.385435L138.578684 705.300494z" p-id="6518" fill="#e9aa6b"></path></svg>