<?xml version="1.0" standalone="no"?><!DOCTYPE svg PUBLIC "-//W3C//DTD SVG 1.1//EN" "http://www.w3.org/Graphics/SVG/1.1/DTD/svg11.dtd"><svg t="1568978007617" class="icon" viewBox="0 0 1453 1024" version="1.1" xmlns="http://www.w3.org/2000/svg" p-id="4234" xmlns:xlink="http://www.w3.org/1999/xlink" width="68.109375" height="48"><defs><style type="text/css"></style></defs><path d="M1378.527731 594.608403V361.411765c0-4.302521-0.860504-12.047059-0.860504-12.047059-0.860504-6.023529-8.605042-16.34958-17.210084-20.652101L716.8 3.442017c-8.605042-4.302521-18.070588-4.302521-26.67563 0L17.210084 336.457143c-10.32605 5.163025-17.210084 15.489076-17.210084 26.67563s6.884034 22.373109 17.210084 26.67563l316.665546 157.472269c0 0.860504 0 2.581513-0.860504 3.442017v242.662185c0 64.537815 40.443697 123.912605 114.447059 166.937815 68.840336 40.443697 159.193277 62.816807 255.569748 62.816807s186.729412-22.373109 255.569748-62.816807c74.003361-43.02521 114.447059-102.4 114.447058-166.937815V550.722689v-21.512605l246.964706-126.494118v188.450421c-47.327731 12.047059-81.747899 55.932773-80.02689 106.702521 1.721008 55.072269 47.327731 100.678992 103.260504 102.4 60.235294 1.721008 110.144538-46.467227 110.144538-105.842017-1.721008-46.467227-32.69916-86.05042-74.863866-99.818488z m-365.714286 199.636975c0 92.07395-141.983193 170.379832-310.642016 170.379832S391.529412 886.319328 391.529412 794.245378V574.816807l298.594958 137.680672c4.302521 1.721008 8.605042 2.581513 12.047059 2.581513 4.302521 0 9.465546-0.860504 13.768067-3.442017l296.013445-151.44874v234.057143zM702.171429 652.262185l-602.352942-289.989916 602.352942-299.455462 578.258823 293.431932-578.258823 296.013446z m643.657142 90.352941c-29.257143 0-52.490756-26.67563-45.606722-56.793277 3.442017-17.210084 18.070588-31.838655 35.280672-36.141177 30.117647-6.884034 57.653782 16.34958 57.653782 45.606723-0.860504 25.815126-21.512605 47.327731-47.327732 47.327731z m0 0" fill="" p-id="4235"></path></svg>