<?xml version="1.0" standalone="no"?><!DOCTYPE svg PUBLIC "-//W3C//DTD SVG 1.1//EN" "http://www.w3.org/Graphics/SVG/1.1/DTD/svg11.dtd"><svg t="1571212355552" class="icon" viewBox="0 0 1024 1024" version="1.1" xmlns="http://www.w3.org/2000/svg" p-id="9194" xmlns:xlink="http://www.w3.org/1999/xlink" width="48" height="48"><defs><style type="text/css"></style></defs><path d="M470.8 619.5v-70.1c0-19.3 16.9-36.3 36.3-36.3s36.3 16.9 36.3 36.3v70.1l48.4-82.2-43.5-91.9c123.3 16.9 200.7 104 237 263.6H228.9c36.3-162 113.7-251.5 237-263.6l-43.5 91.9 48.4 82.2zM180.6 803.3h653V900h-653v-96.7zM108 730.7h798.1v72.6H108v-72.6z m309.6-539.3c19.4-19.4 50.8-29 89.5-29s70.1 9.7 89.5 29c24.2 21.8 33.9 58 29 104-7.3 77.4-55.6 130.6-121 130.6-62.9 0-111.3-53.2-120.9-130.6 0-46 9.7-79.8 33.9-104z m0 0" p-id="9195" fill="#a686ba"></path></svg>