<?xml version="1.0" standalone="no"?><!DOCTYPE svg PUBLIC "-//W3C//DTD SVG 1.1//EN" "http://www.w3.org/Graphics/SVG/1.1/DTD/svg11.dtd"><svg t="1568189622030" class="icon" viewBox="0 0 1024 1024" version="1.1" xmlns="http://www.w3.org/2000/svg" p-id="3675" width="32" height="32" xmlns:xlink="http://www.w3.org/1999/xlink"><defs><style type="text/css"></style></defs><path d="M1021.44 138.752a59.328 59.328 0 0 0-19.2-42.944 62.848 62.848 0 0 0-28.096-14.848l-908.8-1.856A64 64 0 0 0 21.696 96a59.52 59.52 0 0 0-19.2 43.2v541.632a59.328 59.328 0 0 0 19.2 42.944 63.168 63.168 0 0 0 43.008 16.64h410.688v151.36H238.144a35.328 35.328 0 1 0 0.64 70.4h547.072a36.288 36.288 0 0 0 36.032-35.392 35.84 35.84 0 0 0-36.032-35.2H548.608v-151.168h410.304a64 64 0 0 0 43.392-16.896 59.392 59.392 0 0 0 19.2-43.136zM948.224 672H75.776V149.696h872.448z" p-id="3676"></path><path d="M274.496 529.408H537.6a78.336 78.336 0 0 0 149.12 0h57.6a24.448 24.448 0 1 0 0-48.896h-57.6a78.336 78.336 0 0 0-149.12 0H274.496a24.448 24.448 0 0 0 0 48.896zM328.704 403.2A78.464 78.464 0 0 0 403.2 348.672h341.184a24.512 24.512 0 0 0 0-48.96H403.2A78.592 78.592 0 1 0 328.704 403.2z m0-108.8a29.76 29.76 0 1 1-29.76 29.76A29.76 29.76 0 0 1 328.704 294.4z" p-id="3677"></path></svg>