<?xml version="1.0" standalone="no"?><!DOCTYPE svg PUBLIC "-//W3C//DTD SVG 1.1//EN" "http://www.w3.org/Graphics/SVG/1.1/DTD/svg11.dtd"><svg t="1558669267412" class="icon" style="" viewBox="0 0 1027 1024" version="1.1" xmlns="http://www.w3.org/2000/svg" p-id="5156" xmlns:xlink="http://www.w3.org/1999/xlink" width="200.5859375" height="200"><defs><style type="text/css"></style></defs><path d="M406.4 1021.44c-15.36 0-30.72-7.68-40.96-17.92L17.28 660.48c-15.36-15.36-20.48-38.4-15.36-56.32 5.12-17.92 17.92-33.28 35.84-38.4 35.84-10.24 209.92-76.8 222.72-253.44 12.8-192 222.72-281.6 286.72-304.64 20.48-7.68 46.08-2.56 61.44 15.36l401.92 401.92c15.36 15.36 20.48 35.84 15.36 56.32-5.12 17.92-17.92 33.28-35.84 38.4-64 20.48-220.16 81.92-268.8 184.32-7.68 17.92-15.36 33.28-23.04 51.2-58.88 128-120.32 266.24-291.84 266.24z m161.28-967.68c-2.56 0-2.56 0 0 0-58.88 20.48-243.2 99.84-256 261.12C296.32 524.8 94.08 601.6 53.12 614.4c0 0-2.56 0-2.56 2.56s0 5.12 2.56 7.68l345.6 345.6c2.56 2.56 5.12 2.56 5.12 2.56 140.8 0 189.44-112.64 245.76-240.64 7.68-17.92 15.36-35.84 23.04-51.2 53.76-115.2 209.92-181.76 299.52-212.48 0 0 2.56 0 2.56-2.56s0-5.12-2.56-7.68L572.8 56.32c-2.56-2.56-5.12-2.56-5.12-2.56z" p-id="5157" fill="#1296db"></path><path d="M485.76 570.88l53.76 53.76c7.68 7.68 7.68 15.36 0 20.48-7.68 7.68-15.36 7.68-20.48 0l-53.76-53.76-46.08 46.08c-5.12 5.12-10.24 7.68-12.8 7.68-2.56 0-7.68-2.56-12.8-7.68-5.12-5.12-7.68-7.68-7.68-12.8 0-2.56 2.56-7.68 7.68-12.8l46.08-46.08L385.92 512c-7.68-7.68-7.68-15.36 0-20.48 7.68-7.68 15.36-7.68 20.48 0l53.76 53.76 30.72-30.72-48.64-53.76c-7.68-7.68-7.68-15.36 0-20.48 7.68-7.68 15.36-7.68 20.48 0l38.4 38.4 15.36-61.44 15.36-61.44c2.56-10.24 10.24-15.36 17.92-15.36 5.12 0 7.68 2.56 10.24 5.12 2.56 2.56 2.56 7.68 0 12.8l-35.84 143.36 5.12 5.12c23.04-5.12 46.08-12.8 69.12-17.92 23.04-5.12 46.08-12.8 69.12-17.92 7.68-2.56 12.8-2.56 15.36 0 2.56 2.56 5.12 5.12 5.12 10.24s0 7.68-2.56 10.24c-2.56 2.56-7.68 5.12-12.8 5.12l-122.88 30.72 38.4 38.4c7.68 7.68 7.68 15.36 0 20.48-7.68 7.68-15.36 7.68-20.48 0L513.92 532.48l-28.16 38.4zM419.2 299.52c-5.12-5.12-5.12-12.8 0-17.92l125.44-128c5.12-5.12 12.8-5.12 17.92 0 5.12 5.12 5.12 12.8 0 17.92l-125.44 128c-5.12 5.12-12.8 5.12-17.92 0zM419.2 878.08c-5.12-5.12-5.12-12.8 0-17.92l125.44-125.44c5.12-5.12 12.8-5.12 17.92 0 5.12 5.12 5.12 12.8 0 17.92L437.12 878.08c-5.12 5.12-12.8 5.12-17.92 0z" p-id="5158" fill="#1296db"></path></svg>