<?xml version="1.0" standalone="no"?><!DOCTYPE svg PUBLIC "-//W3C//DTD SVG 1.1//EN" "http://www.w3.org/Graphics/SVG/1.1/DTD/svg11.dtd"><svg t="1559540628790" class="icon" style="" viewBox="0 0 1024 1024" version="1.1" xmlns="http://www.w3.org/2000/svg" p-id="14884" xmlns:xlink="http://www.w3.org/1999/xlink" width="200" height="200"><defs><style type="text/css"></style></defs><path d="M426.666667 526.933333c-30.933333-7.466667-53.333333-32-53.333334-61.866666 0 29.866667-22.4 54.4-53.333333 61.866666v211.2h106.666667V526.933333zM711.466667 526.933333c-30.933333-7.466667-53.333333-32-53.333334-61.866666 0 35.2-32 64-71.466666 64s-71.466667-28.8-71.466667-64c0 35.2-32 64-71.466667 64v209.066666h266.666667V526.933333z" fill="#BEC2C8" p-id="14885"></path><path d="M512 0C229.333333 0 0 229.333333 0 512s229.333333 512 512 512 512-229.333333 512-512S794.666667 0 512 0zM320 256h391.466667c9.6 0 18.133333 7.466667 18.133333 16s-8.533333 16-18.133333 16H320c-9.6 0-18.133333-7.466667-18.133333-16S310.4 256 320 256z m480 209.066667c0 29.866667-22.4 54.4-53.333333 61.866666v211.2h35.2c9.6 0 18.133333 7.466667 18.133333 16s-7.466667 16-18.133333 16h-533.333334c-9.6 0-18.133333-7.466667-18.133333-16s7.466667-16 18.133333-16h35.2V526.933333c-30.933333-7.466667-53.333333-32-53.333333-61.866666V448H800v17.066667z m-569.6-33.066667l71.466667-129.066667h426.666666L800 432H230.4z" fill="#BEC2C8" p-id="14886" data-spm-anchor-id="a313x.7781069.0.i23" class=""></path></svg>