<?xml version="1.0" standalone="no"?><!DOCTYPE svg PUBLIC "-//W3C//DTD SVG 1.1//EN" "http://www.w3.org/Graphics/SVG/1.1/DTD/svg11.dtd"><svg t="1558327751982" class="icon" style="" viewBox="0 0 1024 1024" version="1.1" xmlns="http://www.w3.org/2000/svg" p-id="3877" xmlns:xlink="http://www.w3.org/1999/xlink" width="200" height="200"><defs><style type="text/css"></style></defs><path d="M485.7114 886.6c-1.1 0-2-0.2-2.9-0.2h-0.3c-0.8 0.2-1.6 0.3-2.5 0.2-4.7 0.1-8.9-2.8-10.5-7.1l-359.8-202c-18.9 17.9-29.6 37.4-29.6 57.8 0 87.5 190.6 158.4 425.8 158.4 235.1 0 425.7-70.9 425.7-158.4 0-19.4-9.9-38.1-27.2-55.3L490.6114 885.4c-1.6 0.8-3.2 1.1-4.9 1.2z m0 0" fill="#E5E5E4" p-id="3878"></path><path d="M890.8114 662.1v-151L615.6114 626.3c-5 2-10.7 0.4-13.7-4L491.2114 461.4V860l399.6-197.9z m0 0" fill="#E5E5E4" p-id="3879"></path><path d="M913.1114 669V501.7l103.3-43.1c2.9-1.3 5.2-3.8 6.3-6.8 1-3.1 0.6-6.5-1.1-9.4l-110-182.8c-0.2-0.2-0.2-0.4-0.6-0.7 0-0.2 0-0.4-0.2-0.4-0.5-0.7-1.1-1.3-1.8-1.8-0.7-0.7-1.5-1.1-2.5-1.4-0.2-0.4-0.8-0.4-1.1-0.7h-0.4l-387.8-124c-2.2-0.7-4.6-0.7-6.8 0l-9.8 3.2-377.8 121h-0.5c-0.4 0.3-0.9 0.3-1.1 0.7-1.7 0.5-3.2 1.6-4.2 3.1-0.2 0.3-0.4 0.4-0.7 0.9-0.2 0-0.2 0.2-0.2 0.2l-0.9 1.8L1.6114 452.2c-1.5 2.6-2 5.8-1.3 8.7 0.9 2.9 2.9 5.4 5.6 6.9l94.4 49.5v148.3c0 4.1 2.2 7.8 5.8 9.9l3.6 2 359.8 202c1.6 4.4 5.9 7.2 10.5 7.1 0.9 0 1.6 0 2.5-0.2h0.2c0.9 0 1.8 0.2 2.9 0.2 1.7 0 3.4-0.4 4.9-1.1L904.4114 680l2.3-1.1c3.9-1.8 6.4-5.7 6.4-9.9z m-15.4-185c-0.7 0.2-1.4 0.5-2 0.9L615.4114 602.1l-119-172.7 400.9-150.1 98.6 163.5-98.2 41.2z m-380.3-86.3V154.1l350.5 112.3-350.5 131.3zM495.0114 159v247.1l-18.7 7-319.4-145.9L495.0114 159zM26.9114 453.6L130.3114 280l334.1 152.4L373.0114 635 117.8114 501.3l-90.9-47.7z m346.2 206.7c1.6 0.9 3.3 1.3 5.1 1.3 4.4-0.2 8.4-2.7 10.3-6.7l80.3-177.6V853L122.7114 659.1V528.9l250.4 131.4z m118.1-198.9l110.7 160.8c3.1 4.4 8.8 6.1 13.7 4L890.7114 511v151L491.3114 860l-0.1-398.6z m0 0" fill="#9C9C9C" p-id="3880"></path><path d="M468.9114 853.1V477.3l-80.3 177.6c-1.9 4-5.9 6.6-10.3 6.7-1.8 0-3.6-0.4-5.1-1.3L122.7114 529v130.2l346.2 193.9z m0 0" fill="#E5E5E4" p-id="3881"></path></svg>